<svg width="78" height="293" viewBox="0 0 78 293" fill="none" xmlns="http://www.w3.org/2000/svg">
<g clip-path="url(#clip0_342_305)">
<path d="M0.579712 272.096L0.579712 278.375L77.4637 278.375L77.4637 272.096L0.579712 272.096Z" fill="black"/>
<path d="M0.579712 14.6737L0.579712 20.9528L77.4637 20.9528L77.4637 14.6737L0.579712 14.6737Z" fill="black"/>
<path d="M0.579712 106.265L0.579712 112.544L77.4637 112.544L77.4637 106.265L0.579712 106.265Z" fill="black"/>
<path d="M0.579712 116.978L0.579712 123.257L77.4637 123.257L77.4637 116.978L0.579712 116.978Z" fill="black"/>
<path d="M0.579712 211.527L0.579712 217.806L77.4637 217.806L77.4637 211.527L0.579712 211.527Z" fill="black"/>
<path d="M0.579712 180.501L0.579712 186.78L77.4637 186.78L77.4637 180.501L0.579712 180.501Z" fill="black"/>
<path d="M0.579712 169.792L0.579712 176.071L77.4637 176.071L77.4637 169.792L0.579712 169.792Z" fill="black"/>
<path d="M0.579712 75.2425L77.0214 75.2425L77.4637 75.7972L77.4637 81.5216L0.579712 81.5216L0.579712 75.2425Z" fill="black"/>
<path d="M0.579712 191.584L0.579712 197.308L77.4637 197.308L77.4637 191.584L0.579712 191.584Z" fill="black"/>
<path d="M0.579712 95.5554L0.579712 101.465L77.4637 101.465L77.4637 95.5554L0.579712 95.5554Z" fill="black"/>
<path d="M0.579712 67.4879L77.4637 67.4879L77.1877 72.1288L1.31884 72.2878L0.621269 71.6813L0.579712 67.4879Z" fill="black"/>
<path d="M0.579712 6.91902L0.579712 11.3492L77.4637 11.3492L77.4637 6.91901L0.579712 6.91902Z" fill="black"/>
<path d="M0.579712 281.699L0.579712 286.13L77.4637 286.13L77.4637 281.699L0.579712 281.699Z" fill="black"/>
<path d="M0.579712 221.131L0.579712 225.561L77.4637 225.561L77.4637 221.131L0.579712 221.131Z" fill="black"/>
<path d="M0.579712 136.924L0.579712 141.355L77.4637 141.355L77.4637 136.924L0.579712 136.924Z" fill="black"/>
<path d="M0.579712 0.266392L0.579712 3.59085L77.4637 3.59085L77.4637 0.266388L0.579712 0.266392Z" fill="black"/>
<path d="M0.579712 60.8389L0.579712 64.1634L77.4637 64.1634L77.4637 60.8389L0.579712 60.8389Z" fill="black"/>
<path d="M0.579712 265.817L0.579712 269.141L77.4637 269.141L77.4637 265.817L0.579712 265.817Z" fill="black"/>
<path d="M0.579712 205.248L77.4637 205.248C77.3806 206.361 77.7932 207.785 77.0214 208.572L0.579712 208.572L0.579712 205.248Z" fill="black"/>
<path d="M0.579712 228.885L77.0214 228.885C77.7932 229.673 77.3806 231.097 77.4637 232.21L0.579712 232.21L0.579712 228.885Z" fill="black"/>
<path d="M0.579712 259.538L77.0214 259.538C77.7932 260.325 77.3806 261.749 77.4637 262.862L0.579712 262.862L0.579712 259.538Z" fill="black"/>
<path d="M0.579712 43.8505L77.4637 43.8505C77.3806 44.9636 77.7932 46.3874 77.0214 47.175L0.579712 47.175L0.579712 43.8505Z" fill="black"/>
<path d="M0.579712 30.1829L77.4637 30.1829C77.3806 31.296 77.7932 32.7197 77.0214 33.5074L0.579712 33.5074L0.579712 30.1829Z" fill="black"/>
<path d="M0.579712 23.9074L77.0214 23.9074C77.7932 24.6951 77.3806 26.1188 77.4637 27.2319L0.579712 27.2319L0.579712 23.9074Z" fill="black"/>
<path d="M0.579712 289.454L77.0214 289.454C77.7932 290.242 77.3806 291.665 77.4637 292.778L0.579712 292.778L0.579712 289.454Z" fill="black"/>
<path d="M0.579712 153.909L77.0214 153.909C77.7932 154.697 77.3806 156.12 77.4637 157.234L0.579712 157.234L0.579712 153.909Z" fill="black"/>
<path d="M77.4637 249.198L0.579712 249.198L0.855771 246.036L77.1877 246.036L77.4637 249.198Z" fill="black"/>
<path d="M77.4637 87.8007L0.579712 87.8007L0.855771 84.639L77.1877 84.639L77.4637 87.8007Z" fill="black"/>
<path d="M0.579712 160.928L0.579712 163.883L77.4637 163.883L77.4637 160.928L0.579712 160.928Z" fill="black"/>
<path d="M0.579712 147.264L0.579712 150.219L77.4637 150.219L77.4637 147.264L0.579712 147.264Z" fill="black"/>
<path d="M0.579712 129.166L0.579712 132.121L77.4637 132.121L77.4637 129.166L0.579712 129.166Z" fill="black"/>
<path d="M0.579712 239.225L0.579712 242.179L77.4637 242.179L77.4637 239.225L0.579712 239.225Z" fill="black"/>
<path d="M0.579712 252.892L0.579712 255.847L77.4637 255.847L77.4637 252.892L0.579712 252.892Z" fill="black"/>
<path d="M0.579712 50.8656L0.579712 53.8202L77.4637 53.8202L77.4637 50.8656L0.579712 50.8656Z" fill="black"/>
<path d="M0.579712 37.2016L0.579712 40.1563L77.4637 40.1563L77.4637 37.2016L0.579712 37.2016Z" fill="black"/>
</g>
<defs>
<clipPath id="clip0_342_305">
<rect width="292.508" height="76.9226" fill="white" transform="translate(0.579712 292.778) rotate(-90)"/>
</clipPath>
</defs>
</svg>
