<svg width="224" height="42" viewBox="0 0 224 42" fill="none" xmlns="http://www.w3.org/2000/svg">
<g clip-path="url(#clip0_206_1410)">
<path d="M15.8618 0.0211777L11.0628 0.01474L11.0082 40.7257L15.8072 40.7322L15.8618 0.0211777Z" fill="black"/>
<path d="M212.598 0.285078L207.799 0.278641L207.744 40.9896L212.543 40.9961L212.598 0.285078Z" fill="black"/>
<path d="M142.599 0.191176L137.8 0.184738L137.745 40.8957L142.544 40.9022L142.599 0.191176Z" fill="black"/>
<path d="M134.411 0.18019L129.612 0.173752L129.558 40.8847L134.357 40.8912L134.411 0.18019Z" fill="black"/>
<path d="M62.1516 0.0832657L57.3526 0.076828L57.298 40.7878L62.0969 40.7943L62.1516 0.0832657Z" fill="black"/>
<path d="M85.8632 0.11505L81.0643 0.108612L81.0097 40.8196L85.8086 40.826L85.8632 0.11505Z" fill="black"/>
<path d="M94.0479 0.126036L89.2489 0.119598L89.1943 40.8306L93.9932 40.837L94.0479 0.126036Z" fill="black"/>
<path d="M166.308 0.223006L166.253 40.6998L165.829 40.9334L161.454 40.9276L161.509 0.216568L166.308 0.223006Z" fill="black"/>
<path d="M77.3932 0.103693L73.0182 0.0978241L72.9635 40.8088L77.3386 40.8147L77.3932 0.103693Z" fill="black"/>
<path d="M150.783 0.202165L146.267 0.196106L146.212 40.9071L150.729 40.9132L150.783 0.202165Z" fill="black"/>
<path d="M172.234 0.23095L172.18 40.9419L168.633 40.791L168.565 0.617405L169.029 0.248655L172.234 0.23095Z" fill="black"/>
<path d="M218.524 0.293025L215.138 0.288483L215.084 40.9995L218.47 41.004L218.524 0.293025Z" fill="black"/>
<path d="M8.52204 0.0113475L5.1362 0.00680542L5.08159 40.7178L8.46743 40.7223L8.52204 0.0113475Z" fill="black"/>
<path d="M54.812 0.0733897L51.4261 0.0688477L51.3715 40.7798L54.7573 40.7844L54.812 0.0733897Z" fill="black"/>
<path d="M119.167 0.159739L115.781 0.155197L115.726 40.8662L119.112 40.8707L119.167 0.159739Z" fill="black"/>
<path d="M223.608 0.299856L221.068 0.296448L221.013 41.0074L223.554 41.0108L223.608 0.299856Z" fill="black"/>
<path d="M177.316 0.237753L174.775 0.234344L174.72 40.9453L177.261 40.9487L177.316 0.237753Z" fill="black"/>
<path d="M20.6603 0.0275784L18.1195 0.0241699L18.0649 40.7352L20.6057 40.7386L20.6603 0.0275784Z" fill="black"/>
<path d="M66.9504 0.0896969L66.8958 40.8007C66.0451 40.7555 64.9567 40.9726 64.3553 40.5631L64.4096 0.0862885L66.9504 0.0896969Z" fill="black"/>
<path d="M48.8854 0.0654354L48.8311 40.5422C48.2286 40.9501 47.1408 40.7301 46.29 40.773L46.3446 0.062027L48.8854 0.0654354Z" fill="black"/>
<path d="M25.4592 0.0340328L25.4049 40.5108C24.8024 40.9187 23.7146 40.6987 22.8638 40.7416L22.9184 0.0306244L25.4592 0.0340328Z" fill="black"/>
<path d="M190.299 0.255178L190.244 40.9662C189.394 40.921 188.305 41.138 187.704 40.7286L187.758 0.25177L190.299 0.255178Z" fill="black"/>
<path d="M200.745 0.269201L200.69 40.9802C199.839 40.935 198.751 41.1521 198.15 40.7426L198.204 0.265793L200.745 0.269201Z" fill="black"/>
<path d="M205.541 0.27561L205.486 40.7524C204.884 41.1603 203.796 40.9403 202.945 40.9832L203 0.272202L205.541 0.27561Z" fill="black"/>
<path d="M2.59542 0.00340844L2.54112 40.4802C1.93858 40.8881 0.850772 40.6681 1.32983e-05 40.711L0.0546265 0L2.59542 0.00340844Z" fill="black"/>
<path d="M106.186 0.142309L106.132 40.6191C105.529 41.027 104.442 40.807 103.591 40.8499L103.646 0.138901L106.186 0.142309Z" fill="black"/>
<path d="M33.3066 40.7556L33.3612 0.044632L35.7774 0.19405L35.7232 40.6127L33.3066 40.7556Z" fill="black"/>
<path d="M156.655 40.9211L156.71 0.210114L159.126 0.359532L159.072 40.7782L156.655 40.9211Z" fill="black"/>
<path d="M100.822 0.135125L98.564 0.132095L98.5094 40.8431L100.768 40.8461L100.822 0.135125Z" fill="black"/>
<path d="M111.265 0.149132L109.007 0.146103L108.952 40.8571L111.21 40.8601L111.265 0.149132Z" fill="black"/>
<path d="M125.096 0.167687L122.838 0.164658L122.783 40.8756L125.042 40.8787L125.096 0.167687Z" fill="black"/>
<path d="M40.9834 0.0548481L38.7253 0.0518188L38.6706 40.7628L40.9288 40.7658L40.9834 0.0548481Z" fill="black"/>
<path d="M30.5379 0.0408406L28.2797 0.0378113L28.2251 40.7488L30.4832 40.7518L30.5379 0.0408406Z" fill="black"/>
<path d="M184.938 0.247979L182.68 0.244949L182.625 40.9559L184.883 40.959L184.938 0.247979Z" fill="black"/>
<path d="M195.381 0.262001L193.122 0.258972L193.068 40.97L195.326 40.973L195.381 0.262001Z" fill="black"/>
</g>
<defs>
<clipPath id="clip0_206_1410">
<rect width="223.551" height="40.7306" fill="white" transform="translate(0.0546265) rotate(0.0768614)"/>
</clipPath>
</defs>
</svg>
