<svg width="1165" height="483" viewBox="0 0 1165 483" fill="none" xmlns="http://www.w3.org/2000/svg">
<path d="M1127.87 0C1133.49 14.9264 1146.64 26.0932 1162.63 28.7537C1162.23 29.465 1161.99 30.2902 1161.99 31.1704C1161.99 33.2068 1163.24 34.9477 1165 35.6637V37.5732C1163.24 38.2891 1161.99 40.0319 1161.99 42.0685C1161.99 44.1047 1163.24 45.8458 1165 46.5618V48.4713C1163.24 49.1872 1161.99 50.9291 1161.99 52.9656C1161.99 55.0019 1163.24 56.7428 1165 57.4589V59.3693C1163.24 60.0853 1161.99 61.8272 1161.99 63.8636C1161.99 65.8999 1163.24 67.641 1165 68.3569V70.2664C1163.24 70.9824 1161.99 72.7243 1161.99 74.7607C1161.99 76.7971 1163.24 78.538 1165 79.254V81.1645C1163.24 81.8805 1161.99 83.6223 1161.99 85.6588C1161.99 87.6951 1163.24 89.4361 1165 90.1521V92.0616C1163.24 92.7775 1161.99 94.5194 1161.99 96.5559C1161.99 98.5922 1163.24 100.333 1165 101.049V102.96C1163.24 103.676 1161.99 105.418 1161.99 107.454C1161.99 109.49 1163.24 111.231 1165 111.947V113.857C1163.24 114.573 1161.99 116.315 1161.99 118.351C1161.99 120.387 1163.24 122.128 1165 122.844V124.755C1163.24 125.471 1161.99 127.213 1161.99 129.249C1161.99 131.285 1163.24 133.026 1165 133.742V135.652C1163.24 136.368 1161.99 138.11 1161.99 140.146C1161.99 142.183 1163.24 143.923 1165 144.64V146.55C1163.24 147.266 1161.99 149.008 1161.99 151.044C1161.99 153.081 1163.24 154.822 1165 155.538V157.447C1163.24 158.163 1161.99 159.905 1161.99 161.941C1161.99 163.978 1163.24 165.719 1165 166.435V168.345C1163.24 169.061 1161.99 170.803 1161.99 172.839C1161.99 174.876 1163.24 176.617 1165 177.333V179.242C1163.24 179.958 1161.99 181.7 1161.99 183.737C1161.99 185.773 1163.24 187.515 1165 188.231V190.14C1163.24 190.856 1161.99 192.598 1161.99 194.635C1161.99 196.671 1163.24 198.412 1165 199.128V201.037C1163.24 201.753 1161.99 203.496 1161.99 205.533C1162 207.569 1163.24 209.31 1165 210.026V211.935C1163.24 212.651 1161.99 214.393 1161.99 216.43C1161.99 218.466 1163.24 220.207 1165 220.923V222.833C1163.24 223.548 1161.99 225.291 1161.99 227.328C1161.99 229.364 1163.24 231.105 1165 231.821V233.731C1163.24 234.447 1161.99 236.188 1161.99 238.225C1161.99 240.261 1163.24 242.002 1165 242.718V244.629C1163.24 245.345 1161.99 247.087 1161.99 249.123C1161.99 251.159 1163.24 252.9 1165 253.616V255.526C1163.24 256.242 1161.99 257.984 1161.99 260.02C1161.99 262.057 1163.24 263.797 1165 264.514V266.424C1163.24 267.14 1161.99 268.882 1161.99 270.918C1161.99 272.955 1163.24 274.696 1165 275.412V277.321C1163.24 278.037 1161.99 279.779 1161.99 281.815C1161.99 283.852 1163.24 285.593 1165 286.309V288.219C1163.24 288.935 1161.99 290.677 1161.99 292.714C1161.99 294.75 1163.24 296.491 1165 297.207V299.116C1163.24 299.832 1161.99 301.574 1161.99 303.611C1161.99 305.647 1163.24 307.388 1165 308.104V310.014C1163.24 310.73 1161.99 312.472 1161.99 314.509C1161.99 316.545 1163.24 318.286 1165 319.002V320.911C1163.24 321.627 1161.99 323.369 1161.99 325.406C1161.99 327.442 1163.24 329.183 1165 329.899V331.81C1163.24 332.525 1161.99 334.267 1161.99 336.304C1161.99 338.34 1163.24 340.081 1165 340.797V342.707C1163.24 343.422 1161.99 345.164 1161.99 347.201C1161.99 349.237 1163.24 350.979 1165 351.695V353.605C1163.24 354.321 1161.99 356.062 1161.99 358.099C1161.99 360.135 1163.24 361.876 1165 362.592V364.502C1163.24 365.218 1161.99 366.96 1161.99 368.997C1162 371.033 1163.24 372.774 1165 373.49V375.4C1163.24 376.116 1161.99 377.858 1161.99 379.894C1161.99 381.93 1163.24 383.671 1165 384.387V386.297C1163.24 387.013 1161.99 388.756 1161.99 390.792C1161.99 392.828 1163.24 394.57 1165 395.286V397.195C1163.24 397.911 1161.99 399.653 1161.99 401.689C1161.99 403.726 1163.24 405.467 1165 406.183V408.093C1163.24 408.809 1161.99 410.551 1161.99 412.587C1161.99 414.624 1163.24 416.365 1165 417.081V418.99C1163.24 419.706 1161.99 421.448 1161.99 423.484C1161.99 425.521 1163.24 427.262 1165 427.978V429.888C1163.24 430.604 1161.99 432.346 1161.99 434.383C1161.99 436.419 1163.24 438.16 1165 438.876V440.785C1163.24 441.501 1161.99 443.243 1161.99 445.28C1161.99 446.343 1162.33 447.327 1162.91 448.126C1144.68 451.04 1130.09 464.993 1126.05 483H12.0206C5.38183 483 0 477.56 0 470.849V12.1509C0 5.44016 5.38182 0 12.0206 0H1127.87Z" fill="#E9E6E6"/>
</svg>
