<svg width="154" height="483" viewBox="0 0 154 483" fill="none" xmlns="http://www.w3.org/2000/svg">
<path d="M141.7 0C148.407 0 153.845 5.43781 153.845 12.1457V470.645C153.845 477.353 148.407 482.791 141.7 482.791H46.4398C41.9088 462.824 24.2616 447.837 3.03442 447.376C3.40094 446.694 3.60974 445.915 3.60974 445.086C3.60964 442.838 2.07725 440.948 0 440.403V438.876C2.07711 438.331 3.6096 436.442 3.60974 434.194C3.60974 431.946 2.07725 430.056 0 429.511V427.983C2.07714 427.438 3.60974 425.549 3.60974 423.301C3.60967 421.053 2.07726 419.162 0 418.618V417.089C2.07697 416.545 3.60957 414.656 3.60974 412.408C3.60974 410.16 2.07724 408.27 0 407.725V406.197C2.07715 405.652 3.60974 403.763 3.60974 401.515C3.6097 399.267 2.07727 397.377 0 396.832V395.304C2.07696 394.759 3.60954 392.87 3.60974 390.623C3.60974 388.374 2.07724 386.484 0 385.939V384.411C2.07716 383.867 3.60974 381.977 3.60974 379.729C3.60973 377.481 2.07728 375.591 0 375.046V373.518C2.07695 372.973 3.60952 371.085 3.60974 368.837C3.60974 366.589 2.07723 364.699 0 364.154V362.626C2.07716 362.081 3.60973 360.192 3.60974 357.944C3.60974 355.695 2.07729 353.805 0 353.26V351.732C2.07711 351.187 3.60974 349.298 3.60974 347.05C3.60954 344.802 2.07709 342.913 0 342.368V340.84C2.07714 340.295 3.6097 338.406 3.60974 336.158C3.60974 333.91 2.07728 332.02 0 331.475V329.947C2.07712 329.402 3.60974 327.513 3.60974 325.264C3.60957 323.017 2.0771 321.127 0 320.582V319.054C2.07714 318.509 3.60967 316.62 3.60974 314.372C3.60974 312.124 2.07727 310.234 0 309.689V308.161C2.07713 307.616 3.60974 305.727 3.60974 303.479C3.6096 301.231 2.07711 299.341 0 298.797V297.269C2.07713 296.724 3.60964 294.834 3.60974 292.586C3.60974 290.338 2.07726 288.448 0 287.903V286.375C2.07713 285.83 3.60974 283.941 3.60974 281.693C3.60963 279.445 2.07724 277.555 0 277.01V275.483C2.07711 274.938 3.60962 273.049 3.60974 270.801C3.60974 268.553 2.07725 266.662 0 266.118V264.589C2.07714 264.045 3.60974 262.155 3.60974 259.907C3.60966 257.659 2.07725 255.769 0 255.224V253.696C2.07698 253.151 3.60959 251.263 3.60974 249.015C3.60974 246.767 2.07724 244.877 0 244.332V242.804C2.07715 242.259 3.60974 240.37 3.60974 238.122C3.60968 235.874 2.07726 233.983 0 233.439V231.91C2.07696 231.366 3.60956 229.477 3.60974 227.229C3.60974 224.981 2.07723 223.091 0 222.546V221.018C2.07715 220.473 3.60974 218.584 3.60974 216.336C3.60971 214.088 2.07727 212.198 0 211.653V210.125C2.07695 209.58 3.60953 207.691 3.60974 205.444C3.60974 203.195 2.07723 201.305 0 200.76V199.232C2.07716 198.687 3.60974 196.798 3.60974 194.55C3.60974 192.302 2.07728 190.412 0 189.867V188.339C2.0771 187.794 3.60974 185.905 3.60974 183.657C3.60954 181.409 2.07708 179.52 0 178.975V177.447C2.07715 176.902 3.60971 175.013 3.60974 172.765C3.60974 170.516 2.07727 168.626 0 168.081V166.553C2.07711 166.008 3.60974 164.119 3.60974 161.871C3.60957 159.623 2.07709 157.734 0 157.189V155.661C2.07713 155.116 3.60968 153.227 3.60974 150.979C3.60974 148.731 2.07727 146.84 0 146.296V144.768C2.07712 144.223 3.60974 142.334 3.60974 140.085C3.60959 137.837 2.0771 135.948 0 135.403V133.875C2.07712 133.33 3.60965 131.441 3.60974 129.193C3.60974 126.945 2.07726 125.055 0 124.51V122.982C2.07713 122.437 3.60974 120.548 3.60974 118.3C3.60962 116.052 2.07723 114.161 0 113.617V112.09C2.07711 111.545 3.60962 109.655 3.60974 107.407C3.60974 105.159 2.07725 103.269 0 102.724V101.196C2.07713 100.651 3.60974 98.7621 3.60974 96.514C3.60965 94.2659 2.07725 92.3757 0 91.8309V90.3028C2.07698 89.7579 3.60959 87.8696 3.60974 85.6217C3.60974 83.3735 2.07724 81.4834 0 80.9385V79.4104C2.07714 78.8656 3.60974 76.9764 3.60974 74.7283C3.60968 72.4802 2.07726 70.59 0 70.0452V68.5171C2.07696 67.9722 3.60957 66.0838 3.60974 63.836C3.60974 61.5878 2.07723 59.6977 0 59.1528V57.6247C2.07715 57.0799 3.60974 55.1907 3.60974 52.9426C3.60971 50.6945 2.07727 48.8043 0 48.2595V46.7314C2.07695 46.1865 3.60954 44.2981 3.60974 42.0502C3.60974 39.8021 2.07722 37.912 0 37.3671V35.839C2.07716 35.2942 3.60974 33.405 3.60974 31.1569C3.60974 30.0919 3.26538 29.1076 2.68262 28.3083C21.0275 27.6468 36.6037 16.1364 43.1929 0H141.7Z" fill="#E9E6E6"/>
</svg>
