<svg width="1322" height="483" viewBox="0 0 1322 483" fill="none" xmlns="http://www.w3.org/2000/svg">
<path d="M1127.87 0C1133.49 14.9264 1146.64 26.0932 1162.63 28.7537C1162.23 29.465 1161.99 30.2902 1161.99 31.1704C1161.99 33.2068 1163.24 34.9477 1165 35.6637V37.5732C1163.24 38.2891 1161.99 40.0319 1161.99 42.0685C1161.99 44.1047 1163.24 45.8459 1165 46.5618V48.4713C1163.24 49.1872 1161.99 50.9291 1161.99 52.9656C1161.99 55.0019 1163.24 56.7428 1165 57.4589V59.3693C1163.24 60.0853 1161.99 61.8272 1161.99 63.8636C1161.99 65.8999 1163.24 67.641 1165 68.357V70.2664C1163.24 70.9824 1161.99 72.7243 1161.99 74.7607C1161.99 76.7971 1163.24 78.538 1165 79.2541V81.1645C1163.24 81.8805 1161.99 83.6223 1161.99 85.6588C1161.99 87.6951 1163.24 89.4361 1165 90.1521V92.0616C1163.24 92.7775 1161.99 94.5194 1161.99 96.5559C1161.99 98.5922 1163.24 100.333 1165 101.049V102.96C1163.24 103.676 1161.99 105.417 1161.99 107.454C1161.99 109.49 1163.24 111.231 1165 111.947V113.857C1163.24 114.573 1161.99 116.315 1161.99 118.351C1161.99 120.387 1163.24 122.128 1165 122.844V124.755C1163.24 125.471 1161.99 127.213 1161.99 129.249C1161.99 131.285 1163.24 133.026 1165 133.742V135.652C1163.24 136.368 1161.99 138.11 1161.99 140.146C1161.99 142.183 1163.24 143.923 1165 144.64V146.55C1163.24 147.266 1161.99 149.008 1161.99 151.044C1161.99 153.081 1163.24 154.822 1165 155.538V157.447C1163.24 158.163 1161.99 159.905 1161.99 161.941C1161.99 163.978 1163.24 165.719 1165 166.435V168.345C1163.24 169.061 1161.99 170.803 1161.99 172.839C1161.99 174.876 1163.24 176.617 1165 177.333V179.242C1163.24 179.958 1161.99 181.7 1161.99 183.737C1161.99 185.773 1163.24 187.515 1165 188.231V190.14C1163.24 190.856 1161.99 192.598 1161.99 194.635C1161.99 196.671 1163.24 198.412 1165 199.128V201.037C1163.24 201.753 1161.99 203.496 1161.99 205.533C1162 207.569 1163.24 209.31 1165 210.026V211.935C1163.24 212.651 1161.99 214.393 1161.99 216.43C1161.99 218.466 1163.24 220.207 1165 220.923V222.833C1163.24 223.548 1161.99 225.291 1161.99 227.328C1161.99 229.364 1163.24 231.105 1165 231.821V233.731C1163.24 234.447 1161.99 236.188 1161.99 238.225C1161.99 240.261 1163.24 242.002 1165 242.718V244.629C1163.24 245.345 1161.99 247.087 1161.99 249.123C1161.99 251.159 1163.24 252.9 1165 253.616V255.526C1163.24 256.242 1161.99 257.984 1161.99 260.02C1161.99 262.056 1163.24 263.797 1165 264.513V266.424C1163.24 267.14 1161.99 268.882 1161.99 270.918C1161.99 272.954 1163.24 274.695 1165 275.411V277.321C1163.24 278.037 1161.99 279.779 1161.99 281.815C1161.99 283.852 1163.24 285.593 1165 286.309V288.219C1163.24 288.935 1161.99 290.677 1161.99 292.713C1161.99 294.75 1163.24 296.491 1165 297.207V299.116C1163.24 299.832 1161.99 301.574 1161.99 303.61C1161.99 305.647 1163.24 307.388 1165 308.104V310.014C1163.24 310.73 1161.99 312.472 1161.99 314.508C1161.99 316.545 1163.24 318.286 1165 319.002V320.911C1163.24 321.627 1161.99 323.369 1161.99 325.406C1161.99 327.442 1163.24 329.183 1165 329.899V331.809C1163.24 332.525 1161.99 334.267 1161.99 336.304C1161.99 338.34 1163.24 340.081 1165 340.797V342.706C1163.24 343.422 1161.99 345.164 1161.99 347.201C1161.99 349.237 1163.24 350.979 1165 351.695V353.605C1163.24 354.32 1161.99 356.062 1161.99 358.099C1161.99 360.135 1163.24 361.876 1165 362.592V364.502C1163.24 365.217 1161.99 366.96 1161.99 368.997C1162 371.033 1163.24 372.774 1165 373.49V375.4C1163.24 376.116 1161.99 377.857 1161.99 379.894C1161.99 381.93 1163.24 383.671 1165 384.387V386.297C1163.24 387.013 1161.99 388.755 1161.99 390.792C1161.99 392.828 1163.24 394.569 1165 395.285V397.195C1163.24 397.911 1161.99 399.653 1161.99 401.689C1161.99 403.726 1163.24 405.466 1165 406.182V408.093C1163.24 408.809 1161.99 410.551 1161.99 412.587C1161.99 414.623 1163.24 416.365 1165 417.081V418.99C1163.24 419.706 1161.99 421.448 1161.99 423.484C1161.99 425.521 1163.24 427.262 1165 427.978V429.888C1163.24 430.604 1161.99 432.346 1161.99 434.382C1161.99 436.419 1163.24 438.16 1165 438.876V440.785C1163.24 441.501 1161.99 443.243 1161.99 445.279C1161.99 446.343 1162.33 447.326 1162.91 448.125C1144.68 451.04 1130.09 464.993 1126.05 483H12.0206C5.38183 483 0 477.56 0 470.849V12.1509C0 5.44016 5.38182 0 12.0206 0H1127.87Z" fill="#E9E6E6"/>
<path d="M1309.85 0.104706C1316.56 0.104706 1322 5.54251 1322 12.2504V470.75C1322 477.457 1316.56 482.895 1309.85 482.895H1214.59C1210.06 462.928 1192.42 447.942 1171.19 447.48C1171.56 446.799 1171.76 446.019 1171.76 445.191C1171.76 442.943 1170.23 441.053 1168.15 440.508V438.981C1170.23 438.436 1171.76 436.547 1171.76 434.299C1171.76 432.051 1170.23 430.16 1168.15 429.616V428.088C1170.23 427.543 1171.76 425.653 1171.76 423.405C1171.76 421.157 1170.23 419.267 1168.15 418.722V417.194C1170.23 416.649 1171.76 414.761 1171.76 412.513C1171.76 410.265 1170.23 408.375 1168.15 407.83V406.302C1170.23 405.757 1171.76 403.868 1171.76 401.62C1171.76 399.372 1170.23 397.481 1168.15 396.937V395.408C1170.23 394.864 1171.76 392.975 1171.76 390.727C1171.76 388.479 1170.23 386.589 1168.15 386.044V384.516C1170.23 383.971 1171.76 382.082 1171.76 379.834C1171.76 377.586 1170.23 375.696 1168.15 375.151V373.623C1170.23 373.078 1171.76 371.189 1171.76 368.942C1171.76 366.693 1170.23 364.803 1168.15 364.258V362.73C1170.23 362.186 1171.76 360.296 1171.76 358.048C1171.76 355.8 1170.23 353.91 1168.15 353.365V351.837C1170.23 351.292 1171.76 349.403 1171.76 347.155C1171.76 344.907 1170.23 343.018 1168.15 342.473V340.945C1170.23 340.4 1171.76 338.511 1171.76 336.263C1171.76 334.014 1170.23 332.124 1168.15 331.579V330.051C1170.23 329.506 1171.76 327.617 1171.76 325.369C1171.76 323.121 1170.23 321.232 1168.15 320.687V319.159C1170.23 318.614 1171.76 316.725 1171.76 314.477C1171.76 312.229 1170.23 310.339 1168.15 309.794V308.266C1170.23 307.721 1171.76 305.832 1171.76 303.583C1171.76 301.336 1170.23 299.446 1168.15 298.901V297.373C1170.23 296.828 1171.76 294.939 1171.76 292.691C1171.76 290.443 1170.23 288.553 1168.15 288.008V286.48C1170.23 285.935 1171.76 284.046 1171.76 281.798C1171.76 279.55 1170.23 277.659 1168.15 277.115V275.588C1170.23 275.043 1171.76 273.153 1171.76 270.905C1171.76 268.657 1170.23 266.767 1168.15 266.222V264.694C1170.23 264.149 1171.76 262.26 1171.76 260.012C1171.76 257.764 1170.23 255.874 1168.15 255.329V253.801C1170.23 253.256 1171.76 251.368 1171.76 249.12C1171.76 246.872 1170.23 244.981 1168.15 244.437V242.908C1170.23 242.364 1171.76 240.474 1171.76 238.226C1171.76 235.978 1170.23 234.088 1168.15 233.543V232.015C1170.23 231.47 1171.76 229.582 1171.76 227.334C1171.76 225.086 1170.23 223.196 1168.15 222.651V221.123C1170.23 220.578 1171.76 218.689 1171.76 216.441C1171.76 214.192 1170.23 212.302 1168.15 211.758V210.229C1170.23 209.685 1171.76 207.796 1171.76 205.548C1171.76 203.3 1170.23 201.41 1168.15 200.865V199.337C1170.23 198.792 1171.76 196.903 1171.76 194.655C1171.76 192.407 1170.23 190.517 1168.15 189.972V188.444C1170.23 187.899 1171.76 186.01 1171.76 183.762C1171.76 181.514 1170.23 179.624 1168.15 179.079V177.551C1170.23 177.006 1171.76 175.117 1171.76 172.869C1171.76 170.621 1170.23 168.731 1168.15 168.186V166.658C1170.23 166.113 1171.76 164.224 1171.76 161.976C1171.76 159.728 1170.23 157.839 1168.15 157.294V155.766C1170.23 155.221 1171.76 153.332 1171.76 151.084C1171.76 148.835 1170.23 146.945 1168.15 146.4V144.872C1170.23 144.327 1171.76 142.438 1171.76 140.19C1171.76 137.942 1170.23 136.053 1168.15 135.508V133.98C1170.23 133.435 1171.76 131.546 1171.76 129.298C1171.76 127.05 1170.23 125.159 1168.15 124.615V123.087C1170.23 122.542 1171.76 120.653 1171.76 118.404C1171.76 116.156 1170.23 114.266 1168.15 113.721V112.194C1170.23 111.649 1171.76 109.76 1171.76 107.512C1171.76 105.264 1170.23 103.374 1168.15 102.829V101.301C1170.23 100.756 1171.76 98.8668 1171.76 96.6187C1171.76 94.3706 1170.23 92.4804 1168.15 91.9356V90.4075C1170.23 89.8626 1171.76 87.9743 1171.76 85.7264C1171.76 83.4782 1170.23 81.5881 1168.15 81.0433V79.5152C1170.23 78.9703 1171.76 77.0811 1171.76 74.833C1171.76 72.5849 1170.23 70.6947 1168.15 70.1499V68.6218C1170.23 68.0769 1171.76 66.1885 1171.76 63.9407C1171.76 61.6925 1170.23 59.8024 1168.15 59.2575V57.7294C1170.23 57.1846 1171.76 55.2954 1171.76 53.0473C1171.76 50.7992 1170.23 48.909 1168.15 48.3642V46.8361C1170.23 46.2912 1171.76 44.4028 1171.76 42.155C1171.76 39.9068 1170.23 38.0167 1168.15 37.4718V35.9437C1170.23 35.3989 1171.76 33.5097 1171.76 31.2616C1171.76 30.1966 1171.42 29.2124 1170.84 28.413C1189.18 27.7515 1204.76 16.2412 1211.35 0.104706H1309.85Z" fill="#E9E6E6"/>
</svg>
