<svg width="183" height="194" viewBox="0 0 183 194" fill="none" xmlns="http://www.w3.org/2000/svg">
<g clip-path="url(#clip0_438_1425)">
<path d="M182.952 0.0514832H0.398438V193.956H182.952V0.0514832Z" fill="white"/>
<path d="M66.5915 20.3111C68.382 20.3111 69.8334 18.7694 69.8334 16.8676C69.8334 14.9658 68.382 13.4241 66.5915 13.4241C64.8011 13.4241 63.3496 14.9658 63.3496 16.8676C63.3496 18.7694 64.8011 20.3111 66.5915 20.3111Z" fill="black"/>
<path d="M82.4213 20.3111H79.1794C77.3423 20.3111 75.9375 18.8189 75.9375 16.8676C75.9375 14.9163 77.3423 13.4241 79.1794 13.4241H82.4213V20.3111Z" fill="black"/>
<path d="M85.4763 20.3111H82.2344V13.4241H85.4763C87.3134 13.4241 88.7182 14.9163 88.7182 16.8676C88.7182 18.8189 87.3134 20.3111 85.4763 20.3111Z" fill="black"/>
<path d="M116.951 20.3111C118.741 20.3111 120.193 18.7694 120.193 16.8676C120.193 14.9658 118.741 13.4241 116.951 13.4241C115.16 13.4241 113.709 14.9658 113.709 16.8676C113.709 18.7694 115.16 20.3111 116.951 20.3111Z" fill="black"/>
<path d="M76.1283 26.9975H69.6445V23.5541C69.6445 21.6028 71.0494 20.1106 72.8864 20.1106C74.7235 20.1106 76.1283 21.6028 76.1283 23.5541V26.9975Z" fill="black"/>
<path d="M110.656 26.9975C112.446 26.9975 113.898 25.4558 113.898 23.5541C113.898 21.6523 112.446 20.1106 110.656 20.1106C108.866 20.1106 107.414 21.6523 107.414 23.5541C107.414 25.4558 108.866 26.9975 110.656 26.9975Z" fill="black"/>
<path d="M76.1283 26.7969H69.6445V33.6839H76.1283V26.7969Z" fill="black"/>
<path d="M88.7182 33.6839H82.2344V30.2404C82.2344 28.2891 83.6392 26.7969 85.4763 26.7969H88.7182V33.6839Z" fill="black"/>
<path d="M95.0111 33.6839H88.5273V26.7969H91.7692C93.6063 26.7969 95.0111 28.2891 95.0111 30.2404V33.6839Z" fill="black"/>
<path d="M107.603 33.6838H101.119V30.2403C101.119 28.289 102.524 26.7969 104.361 26.7969C106.198 26.7969 107.603 28.289 107.603 30.2403V33.6838Z" fill="black"/>
<path d="M116.951 33.6839C118.741 33.6839 120.193 32.1422 120.193 30.2404C120.193 28.3386 118.741 26.7969 116.951 26.7969C115.16 26.7969 113.709 28.3386 113.709 30.2404C113.709 32.1422 115.16 33.6839 116.951 33.6839Z" fill="black"/>
<path d="M76.1283 40.3702H72.8864C71.0494 40.3702 69.6445 38.8781 69.6445 36.9268V33.4833H76.1283V40.3702Z" fill="black"/>
<path d="M82.4213 33.4833H75.9375V40.3702H82.4213V33.4833Z" fill="black"/>
<path d="M88.7182 33.4833H82.2344V40.3702H88.7182V33.4833Z" fill="black"/>
<path d="M95.0111 33.4833H88.5273V40.3702H95.0111V33.4833Z" fill="black"/>
<path d="M101.308 33.4833H94.8242V40.3702H101.308V33.4833Z" fill="black"/>
<path d="M104.361 40.3702H101.119V33.4833H107.603V36.9267C107.603 38.878 106.198 40.3702 104.361 40.3702Z" fill="black"/>
<path d="M69.8334 47.0565H63.3496V43.613C63.3496 41.6617 64.7544 40.1696 66.5915 40.1696C68.4286 40.1696 69.8334 41.6617 69.8334 43.613V47.0565Z" fill="black"/>
<path d="M79.1794 47.0565C77.3423 47.0565 75.9375 45.5643 75.9375 43.613V40.1696H82.4213V43.613C82.4213 45.5643 81.0165 47.0565 79.1794 47.0565Z" fill="black"/>
<path d="M95.0111 47.0565H91.7692C89.9322 47.0565 88.5273 45.5643 88.5273 43.613V40.1696H95.0111V47.0565Z" fill="black"/>
<path d="M98.0661 47.0565H94.8242V40.1696H101.308V43.613C101.308 45.5643 99.9032 47.0565 98.0661 47.0565Z" fill="black"/>
<path d="M69.8334 46.856H63.3496V53.7429H69.8334V46.856Z" fill="black"/>
<path d="M110.656 53.7429C112.446 53.7429 113.898 52.2012 113.898 50.2994C113.898 48.3977 112.446 46.856 110.656 46.856C108.866 46.856 107.414 48.3977 107.414 50.2994C107.414 52.2012 108.866 53.7429 110.656 53.7429Z" fill="black"/>
<path d="M66.5915 60.4292C64.7544 60.4292 63.3496 58.9371 63.3496 56.9858V53.5423H69.8334V56.9858C69.8334 58.9371 68.4286 60.4292 66.5915 60.4292Z" fill="black"/>
<path d="M79.1794 60.4292C80.9699 60.4292 82.4213 58.8875 82.4213 56.9858C82.4213 55.084 80.9699 53.5423 79.1794 53.5423C77.3889 53.5423 75.9375 55.084 75.9375 56.9858C75.9375 58.8875 77.3889 60.4292 79.1794 60.4292Z" fill="black"/>
<path d="M95.0111 60.4292H88.5273V56.9858C88.5273 55.0345 89.9322 53.5423 91.7692 53.5423C93.6063 53.5423 95.0111 55.0345 95.0111 56.9858V60.4292Z" fill="black"/>
<path d="M107.603 60.4293H101.119V56.9858C101.119 55.0345 102.524 53.5423 104.361 53.5423C106.198 53.5423 107.603 55.0345 107.603 56.9858V60.4293Z" fill="black"/>
<path d="M116.951 60.4292C118.741 60.4292 120.193 58.8875 120.193 56.9858C120.193 55.084 118.741 53.5423 116.951 53.5423C115.16 53.5423 113.709 55.084 113.709 56.9858C113.709 58.8875 115.16 60.4292 116.951 60.4292Z" fill="black"/>
<path d="M88.7182 67.1156H85.4763C83.6392 67.1156 82.2344 65.6234 82.2344 63.6721C82.2344 61.7208 83.6392 60.2286 85.4763 60.2286H88.7182V67.1156Z" fill="black"/>
<path d="M91.7692 67.1156H88.5273V60.2286H95.0111V63.6721C95.0111 65.6234 93.6063 67.1156 91.7692 67.1156Z" fill="black"/>
<path d="M107.603 67.1155H104.361C102.524 67.1155 101.119 65.6234 101.119 63.6721V60.2286H107.603V67.1155Z" fill="black"/>
<path d="M110.656 67.1156H107.414V60.2286H110.656C112.493 60.2286 113.898 61.7208 113.898 63.6721C113.898 65.6234 112.493 67.1156 110.656 67.1156Z" fill="black"/>
<path d="M25.767 73.8019H19.2832V70.3584C19.2832 68.4071 20.688 66.9149 22.5251 66.9149H25.767V73.8019Z" fill="black"/>
<path d="M32.0619 66.9149H25.5781V73.8019H32.0619V66.9149Z" fill="black"/>
<path d="M38.3568 66.9149H31.873V73.8019H38.3568V66.9149Z" fill="black"/>
<path d="M44.6537 66.9149H38.1699V73.8019H44.6537V66.9149Z" fill="black"/>
<path d="M50.9467 66.9149H44.4629V73.8019H50.9467V66.9149Z" fill="black"/>
<path d="M57.2436 66.9149H50.7598V73.8019H57.2436V66.9149Z" fill="black"/>
<path d="M63.5365 73.8019H57.0527V66.9149H60.2946C62.1317 66.9149 63.5365 68.4071 63.5365 70.3584V73.8019Z" fill="black"/>
<path d="M82.4213 73.8019H75.9375V70.3584C75.9375 68.4071 77.3423 66.9149 79.1794 66.9149C81.0165 66.9149 82.4213 68.4071 82.4213 70.3584V73.8019Z" fill="black"/>
<path d="M101.308 73.8019H94.8242V70.3584C94.8242 68.4071 96.229 66.9149 98.0661 66.9149C99.9032 66.9149 101.308 68.4071 101.308 70.3584V73.8019Z" fill="black"/>
<path d="M120.193 73.8019H113.709V70.3584C113.709 68.4071 115.114 66.9149 116.951 66.9149C118.788 66.9149 120.193 68.4071 120.193 70.3584V73.8019Z" fill="black"/>
<path d="M139.078 73.8019H132.594V70.3584C132.594 68.4071 133.999 66.9149 135.836 66.9149H139.078V73.8019Z" fill="black"/>
<path d="M142.129 73.8019H138.887V66.9149H142.129C143.966 66.9149 145.371 68.4071 145.371 70.3584C145.371 72.3097 143.966 73.8019 142.129 73.8019Z" fill="black"/>
<path d="M167.31 73.8019C169.101 73.8019 170.552 72.2602 170.552 70.3584C170.552 68.4566 169.101 66.9149 167.31 66.9149C165.52 66.9149 164.068 68.4566 164.068 70.3584C164.068 72.2602 165.52 73.8019 167.31 73.8019Z" fill="black"/>
<path d="M19.4721 80.4883H16.2302C14.3931 80.4883 12.9883 78.9961 12.9883 77.0448C12.9883 75.0935 14.3931 73.6013 16.2302 73.6013H19.4721V80.4883Z" fill="black"/>
<path d="M25.767 73.6013H19.2832V80.4883H25.767V73.6013Z" fill="black"/>
<path d="M28.82 80.4883H25.5781V73.6013H32.0619V77.0448C32.0619 78.9961 30.6571 80.4883 28.82 80.4883Z" fill="black"/>
<path d="M63.5365 80.4883H60.2946C58.4576 80.4883 57.0527 78.9961 57.0527 77.0448V73.6013H63.5365V80.4883Z" fill="black"/>
<path d="M69.8334 73.6013H63.3496V80.4883H69.8334V73.6013Z" fill="black"/>
<path d="M76.1283 73.6013H69.6445V80.4883H76.1283V73.6013Z" fill="black"/>
<path d="M79.1794 80.4883H75.9375V73.6013H82.4213V77.0448C82.4213 78.9961 81.0165 80.4883 79.1794 80.4883Z" fill="black"/>
<path d="M101.308 73.6013H94.8242V80.4883H101.308V73.6013Z" fill="black"/>
<path d="M120.193 73.6013H113.709V80.4883H120.193V73.6013Z" fill="black"/>
<path d="M126.488 80.4883H120.004V73.6013H123.246C125.083 73.6013 126.488 75.0935 126.488 77.0448V80.4883Z" fill="black"/>
<path d="M139.078 73.6013H132.594V80.4883H139.078V73.6013Z" fill="black"/>
<path d="M164.255 80.4883H157.771V77.0448C157.771 75.0935 159.176 73.6013 161.013 73.6013C162.85 73.6013 164.255 75.0935 164.255 77.0448V80.4883Z" fill="black"/>
<path d="M25.767 80.2877H19.2832V87.1746H25.767V80.2877Z" fill="black"/>
<path d="M44.6537 87.1746H41.4118C39.5747 87.1746 38.1699 85.6824 38.1699 83.7311C38.1699 81.7798 39.5747 80.2877 41.4118 80.2877H44.6537V87.1746Z" fill="black"/>
<path d="M50.9467 80.2877H44.4629V87.1746H50.9467V80.2877Z" fill="black"/>
<path d="M54.0017 87.1747H50.7598V80.2877H54.0017C55.8387 80.2877 57.2436 81.7799 57.2436 83.7312C57.2436 85.6825 55.8387 87.1747 54.0017 87.1747Z" fill="black"/>
<path d="M69.8334 80.2877H63.3496V87.1747H69.8334V80.2877Z" fill="black"/>
<path d="M88.7182 87.1747H82.2344V83.7312C82.2344 81.7799 83.6392 80.2877 85.4763 80.2877C87.3134 80.2877 88.7182 81.7799 88.7182 83.7312V87.1747Z" fill="black"/>
<path d="M101.308 87.1746H98.0661C96.229 87.1746 94.8242 85.6824 94.8242 83.7311V80.2877H101.308V87.1746Z" fill="black"/>
<path d="M107.603 80.2877H101.119V87.1746H107.603V80.2877Z" fill="black"/>
<path d="M113.898 80.2877H107.414V87.1746H113.898V80.2877Z" fill="black"/>
<path d="M120.193 80.2877H113.709V87.1747H120.193V80.2877Z" fill="black"/>
<path d="M126.488 80.2877H120.004V87.1746H126.488V80.2877Z" fill="black"/>
<path d="M132.783 80.2877H126.299V87.1746H132.783V80.2877Z" fill="black"/>
<path d="M139.078 80.2877H132.594V87.1746H139.078V80.2877Z" fill="black"/>
<path d="M148.424 87.1747C150.214 87.1747 151.665 85.633 151.665 83.7312C151.665 81.8294 150.214 80.2877 148.424 80.2877C146.633 80.2877 145.182 81.8294 145.182 83.7312C145.182 85.633 146.633 87.1747 148.424 87.1747Z" fill="black"/>
<path d="M164.255 87.1746H161.013C159.176 87.1746 157.771 85.6825 157.771 83.7312V80.2877H164.255V87.1746Z" fill="black"/>
<path d="M170.552 87.1747H164.068V80.2877H167.31C169.147 80.2877 170.552 81.7799 170.552 83.7312V87.1747Z" fill="black"/>
<path d="M25.767 93.8609H22.5251C20.688 93.8609 19.2832 92.3687 19.2832 90.4174V86.974H25.767V93.8609Z" fill="black"/>
<path d="M32.0619 93.861H25.5781V86.974H28.82C30.6571 86.974 32.0619 88.4662 32.0619 90.4175V93.861Z" fill="black"/>
<path d="M69.8334 86.974H63.3496V93.861H69.8334V86.974Z" fill="black"/>
<path d="M85.4763 93.861C83.6392 93.861 82.2344 92.3688 82.2344 90.4175V86.974H88.7182V90.4175C88.7182 92.3688 87.3134 93.861 85.4763 93.861Z" fill="black"/>
<path d="M107.603 93.861H104.361C102.524 93.861 101.119 92.3688 101.119 90.4175V86.974H107.603V93.861Z" fill="black"/>
<path d="M113.898 86.974H107.414V93.861H113.898V86.974Z" fill="black"/>
<path d="M116.951 93.861H113.709V86.974H120.193V90.4175C120.193 92.3688 118.788 93.861 116.951 93.861Z" fill="black"/>
<path d="M135.836 93.861C133.999 93.861 132.594 92.3688 132.594 90.4175V86.974H139.078V90.4175C139.078 92.3688 137.673 93.861 135.836 93.861Z" fill="black"/>
<path d="M170.552 86.974H164.068V93.861H170.552V86.974Z" fill="black"/>
<path d="M32.0619 100.547H28.82C26.9829 100.547 25.5781 99.0552 25.5781 97.1039V93.6604H32.0619V100.547Z" fill="black"/>
<path d="M38.3568 93.6604H31.873V100.547H38.3568V93.6604Z" fill="black"/>
<path d="M44.6537 100.547H38.1699V93.6604H41.4118C43.2489 93.6604 44.6537 95.1526 44.6537 97.1039V100.547Z" fill="black"/>
<path d="M54.0017 100.547C55.7921 100.547 57.2436 99.0056 57.2436 97.1039C57.2436 95.2021 55.7921 93.6604 54.0017 93.6604C52.2112 93.6604 50.7598 95.2021 50.7598 97.1039C50.7598 99.0056 52.2112 100.547 54.0017 100.547Z" fill="black"/>
<path d="M69.8334 93.6604H63.3496V100.547H69.8334V93.6604Z" fill="black"/>
<path d="M76.1283 100.547H69.6445V93.6604H72.8864C74.7235 93.6604 76.1283 95.1526 76.1283 97.1039V100.547Z" fill="black"/>
<path d="M110.656 100.547C108.819 100.547 107.414 99.0552 107.414 97.1039V93.6604H113.898V97.1039C113.898 99.0552 112.493 100.547 110.656 100.547Z" fill="black"/>
<path d="M126.488 100.547H123.246C121.409 100.547 120.004 99.0552 120.004 97.1039C120.004 95.1526 121.409 93.6604 123.246 93.6604H126.488V100.547Z" fill="black"/>
<path d="M129.541 100.547H126.299V93.6604H129.541C131.378 93.6604 132.783 95.1526 132.783 97.1039C132.783 99.0552 131.378 100.547 129.541 100.547Z" fill="black"/>
<path d="M142.129 100.547C143.919 100.547 145.371 99.0056 145.371 97.1039C145.371 95.2021 143.919 93.6604 142.129 93.6604C140.338 93.6604 138.887 95.2021 138.887 97.1039C138.887 99.0056 140.338 100.547 142.129 100.547Z" fill="black"/>
<path d="M157.96 100.547H154.718C152.881 100.547 151.477 99.0552 151.477 97.1039C151.477 95.1526 152.881 93.6604 154.718 93.6604H157.96V100.547Z" fill="black"/>
<path d="M164.255 93.6604H157.771V100.547H164.255V93.6604Z" fill="black"/>
<path d="M167.31 100.547H164.068V93.6604H170.552V97.1039C170.552 99.0552 169.147 100.547 167.31 100.547Z" fill="black"/>
<path d="M19.4721 107.234H12.9883V103.79C12.9883 101.839 14.3931 100.347 16.2302 100.347H19.4721V107.234Z" fill="black"/>
<path d="M22.5251 107.234H19.2832V100.347H22.5251C24.3622 100.347 25.767 101.839 25.767 103.79C25.767 105.741 24.3622 107.234 22.5251 107.234Z" fill="black"/>
<path d="M44.6537 100.347H38.1699V107.234H44.6537V100.347Z" fill="black"/>
<path d="M47.7048 107.234H44.4629V100.347H47.7048C49.5419 100.347 50.9467 101.839 50.9467 103.79C50.9467 105.741 49.5419 107.234 47.7048 107.234Z" fill="black"/>
<path d="M69.8334 107.234H66.5915C64.7544 107.234 63.3496 105.741 63.3496 103.79V100.347H69.8334V107.234Z" fill="black"/>
<path d="M76.1283 100.347H69.6445V107.234H76.1283V100.347Z" fill="black"/>
<path d="M82.4213 100.347H75.9375V107.234H82.4213V100.347Z" fill="black"/>
<path d="M88.7182 100.347H82.2344V107.234H88.7182V100.347Z" fill="black"/>
<path d="M95.0111 100.347H88.5273V107.234H95.0111V100.347Z" fill="black"/>
<path d="M101.308 107.234H94.8242V100.347H98.0661C99.9032 100.347 101.308 101.839 101.308 103.79V107.234Z" fill="black"/>
<path d="M116.951 107.234C118.741 107.234 120.193 105.692 120.193 103.79C120.193 101.888 118.741 100.347 116.951 100.347C115.16 100.347 113.709 101.888 113.709 103.79C113.709 105.692 115.16 107.234 116.951 107.234Z" fill="black"/>
<path d="M139.078 107.234H132.594V103.79C132.594 101.839 133.999 100.347 135.836 100.347C137.673 100.347 139.078 101.839 139.078 103.79V107.234Z" fill="black"/>
<path d="M151.665 107.234H145.182V103.79C145.182 101.839 146.586 100.347 148.424 100.347C150.261 100.347 151.665 101.839 151.665 103.79V107.234Z" fill="black"/>
<path d="M164.255 100.347H157.771V107.234H164.255V100.347Z" fill="black"/>
<path d="M19.4721 107.033H12.9883V113.92H19.4721V107.033Z" fill="black"/>
<path d="M41.4118 113.92C39.5747 113.92 38.1699 112.428 38.1699 110.477V107.033H44.6537V110.477C44.6537 112.428 43.2489 113.92 41.4118 113.92Z" fill="black"/>
<path d="M54.0017 113.92C55.7921 113.92 57.2436 112.378 57.2436 110.477C57.2436 108.575 55.7921 107.033 54.0017 107.033C52.2112 107.033 50.7598 108.575 50.7598 110.477C50.7598 112.378 52.2112 113.92 54.0017 113.92Z" fill="black"/>
<path d="M76.1283 107.033H69.6445V113.92H76.1283V107.033Z" fill="black"/>
<path d="M88.7182 113.92H85.4763C83.6392 113.92 82.2344 112.428 82.2344 110.477V107.033H88.7182V113.92Z" fill="black"/>
<path d="M95.0111 107.033H88.5273V113.92H95.0111V107.033Z" fill="black"/>
<path d="M101.308 107.033H94.8242V113.92H101.308V107.033Z" fill="black"/>
<path d="M107.603 107.033H101.119V113.92H107.603V107.033Z" fill="black"/>
<path d="M113.898 113.92H107.414V107.033H110.656C112.493 107.033 113.898 108.525 113.898 110.477V113.92Z" fill="black"/>
<path d="M126.488 113.92H120.004V110.477C120.004 108.525 121.409 107.033 123.246 107.033H126.488V113.92Z" fill="black"/>
<path d="M132.783 107.033H126.299V113.92H132.783V107.033Z" fill="black"/>
<path d="M139.078 107.033H132.594V113.92H139.078V107.033Z" fill="black"/>
<path d="M145.371 107.033H138.887V113.92H145.371V107.033Z" fill="black"/>
<path d="M148.424 113.92H145.182V107.033H151.665V110.477C151.665 112.428 150.261 113.92 148.424 113.92Z" fill="black"/>
<path d="M164.255 113.92H161.013C159.176 113.92 157.771 112.428 157.771 110.477V107.033H164.255V113.92Z" fill="black"/>
<path d="M170.552 113.92H164.068V107.033H167.31C169.147 107.033 170.552 108.525 170.552 110.477V113.92Z" fill="black"/>
<path d="M19.4721 113.719H12.9883V120.606H19.4721V113.719Z" fill="black"/>
<path d="M32.0619 120.606H25.5781V117.163C25.5781 115.212 26.9829 113.719 28.82 113.719H32.0619V120.606Z" fill="black"/>
<path d="M38.3568 120.606H31.873V113.719H35.1149C36.952 113.719 38.3568 115.212 38.3568 117.163V120.606Z" fill="black"/>
<path d="M47.7048 120.606C49.4952 120.606 50.9467 119.065 50.9467 117.163C50.9467 115.261 49.4952 113.719 47.7048 113.719C45.9143 113.719 44.4629 115.261 44.4629 117.163C44.4629 119.065 45.9143 120.606 47.7048 120.606Z" fill="black"/>
<path d="M63.5365 120.606H60.2946C58.4576 120.606 57.0527 119.114 57.0527 117.163C57.0527 115.212 58.4576 113.719 60.2946 113.719H63.5365V120.606Z" fill="black"/>
<path d="M69.8334 113.719H63.3496V120.606H69.8334V113.719Z" fill="black"/>
<path d="M76.1283 113.719H69.6445V120.606H76.1283V113.719Z" fill="black"/>
<path d="M79.1794 120.606H75.9375V113.719H79.1794C81.0165 113.719 82.4213 115.212 82.4213 117.163C82.4213 119.114 81.0165 120.606 79.1794 120.606Z" fill="black"/>
<path d="M95.0111 120.606H91.7692C89.9322 120.606 88.5273 119.114 88.5273 117.163V113.719H95.0111V120.606Z" fill="black"/>
<path d="M101.308 113.719H94.8242V120.606H101.308V113.719Z" fill="black"/>
<path d="M107.603 113.719H101.119V120.606H107.603V113.719Z" fill="black"/>
<path d="M110.656 120.606H107.414V113.719H113.898V117.163C113.898 119.114 112.493 120.606 110.656 120.606Z" fill="black"/>
<path d="M126.488 113.719H120.004V120.606H126.488V113.719Z" fill="black"/>
<path d="M132.783 113.719H126.299V120.606H132.783V113.719Z" fill="black"/>
<path d="M139.078 113.719H132.594V120.606H139.078V113.719Z" fill="black"/>
<path d="M145.371 113.719H138.887V120.606H145.371V113.719Z" fill="black"/>
<path d="M167.31 120.606C165.473 120.606 164.068 119.114 164.068 117.163V113.719H170.552V117.163C170.552 119.114 169.147 120.606 167.31 120.606Z" fill="black"/>
<path d="M16.2302 127.293C14.3931 127.293 12.9883 125.801 12.9883 123.849V120.406H19.4721V123.849C19.4721 125.801 18.0673 127.293 16.2302 127.293Z" fill="black"/>
<path d="M32.0619 127.293H28.82C26.9829 127.293 25.5781 125.801 25.5781 123.849V120.406H32.0619V127.293Z" fill="black"/>
<path d="M38.3568 120.406H31.873V127.293H38.3568V120.406Z" fill="black"/>
<path d="M41.4118 127.293H38.1699V120.406H41.4118C43.2489 120.406 44.6537 121.898 44.6537 123.849C44.6537 125.801 43.2489 127.293 41.4118 127.293Z" fill="black"/>
<path d="M54.0017 127.293C55.7921 127.293 57.2436 125.751 57.2436 123.849C57.2436 121.947 55.7921 120.406 54.0017 120.406C52.2112 120.406 50.7598 121.947 50.7598 123.849C50.7598 125.751 52.2112 127.293 54.0017 127.293Z" fill="black"/>
<path d="M69.8334 120.406H63.3496V127.293H69.8334V120.406Z" fill="black"/>
<path d="M98.0661 127.293C96.229 127.293 94.8242 125.801 94.8242 123.849V120.406H101.308V123.849C101.308 125.801 99.9032 127.293 98.0661 127.293Z" fill="black"/>
<path d="M120.193 127.293H113.709V123.849C113.709 121.898 115.114 120.406 116.951 120.406H120.193V127.293Z" fill="black"/>
<path d="M126.488 120.406H120.004V127.293H126.488V120.406Z" fill="black"/>
<path d="M132.783 120.406H126.299V127.293H132.783V120.406Z" fill="black"/>
<path d="M139.078 120.406H132.594V127.293H139.078V120.406Z" fill="black"/>
<path d="M145.371 120.406H138.887V127.293H145.371V120.406Z" fill="black"/>
<path d="M154.718 127.293C156.509 127.293 157.96 125.751 157.96 123.849C157.96 121.948 156.509 120.406 154.718 120.406C152.928 120.406 151.477 121.948 151.477 123.849C151.477 125.751 152.928 127.293 154.718 127.293Z" fill="black"/>
<path d="M69.8334 127.092H63.3496V133.979H69.8334V127.092Z" fill="black"/>
<path d="M76.1283 127.092H69.6445V133.979H76.1283V127.092Z" fill="black"/>
<path d="M82.4213 127.092H75.9375V133.979H82.4213V127.092Z" fill="black"/>
<path d="M88.7182 127.092H82.2344V133.979H88.7182V127.092Z" fill="black"/>
<path d="M95.0111 133.979H88.5273V127.092H91.7692C93.6063 127.092 95.0111 128.584 95.0111 130.536V133.979Z" fill="black"/>
<path d="M113.898 133.979H110.656C108.819 133.979 107.414 132.487 107.414 130.536C107.414 128.584 108.819 127.092 110.656 127.092H113.898V133.979Z" fill="black"/>
<path d="M120.193 127.092H113.709V133.979H120.193V127.092Z" fill="black"/>
<path d="M145.371 127.092H138.887V133.979H145.371V127.092Z" fill="black"/>
<path d="M148.424 133.979H145.182V127.092H148.424C150.261 127.092 151.665 128.584 151.665 130.536C151.665 132.487 150.261 133.979 148.424 133.979Z" fill="black"/>
<path d="M69.8334 133.779H63.3496V140.666H69.8334V133.779Z" fill="black"/>
<path d="M76.1283 133.779H69.6445V140.666H76.1283V133.779Z" fill="black"/>
<path d="M82.4213 133.779H75.9375V140.666H82.4213V133.779Z" fill="black"/>
<path d="M88.7182 133.779H82.2344V140.666H88.7182V133.779Z" fill="black"/>
<path d="M95.0111 133.779H88.5273V140.666H95.0111V133.779Z" fill="black"/>
<path d="M101.308 140.666H94.8242V133.779H98.0661C99.9032 133.779 101.308 135.271 101.308 137.222V140.666Z" fill="black"/>
<path d="M120.193 133.779H113.709V140.666H120.193V133.779Z" fill="black"/>
<path d="M129.541 140.666C131.331 140.666 132.783 139.124 132.783 137.222C132.783 135.32 131.331 133.779 129.541 133.779C127.75 133.779 126.299 135.32 126.299 137.222C126.299 139.124 127.75 140.666 129.541 140.666Z" fill="black"/>
<path d="M145.371 133.779H138.887V140.666H145.371V133.779Z" fill="black"/>
<path d="M157.96 140.666H154.718C152.881 140.666 151.477 139.173 151.477 137.222C151.477 135.271 152.881 133.779 154.718 133.779H157.96V140.666Z" fill="black"/>
<path d="M164.255 133.779H157.771V140.666H164.255V133.779Z" fill="black"/>
<path d="M170.552 140.666H164.068V133.779H167.31C169.147 133.779 170.552 135.271 170.552 137.222V140.666Z" fill="black"/>
<path d="M69.8334 140.465H63.3496V147.352H69.8334V140.465Z" fill="black"/>
<path d="M76.1283 140.465H69.6445V147.352H76.1283V140.465Z" fill="black"/>
<path d="M82.4213 140.465H75.9375V147.352H82.4213V140.465Z" fill="black"/>
<path d="M88.7182 140.465H82.2344V147.352H88.7182V140.465Z" fill="black"/>
<path d="M95.0111 140.465H88.5273V147.352H95.0111V140.465Z" fill="black"/>
<path d="M101.308 140.465H94.8242V147.352H101.308V140.465Z" fill="black"/>
<path d="M120.193 140.465H113.709V147.352H120.193V140.465Z" fill="black"/>
<path d="M145.371 140.465H138.887V147.352H145.371V140.465Z" fill="black"/>
<path d="M148.424 147.352H145.182V140.465H148.424C150.261 140.465 151.665 141.957 151.665 143.908C151.665 145.86 150.261 147.352 148.424 147.352Z" fill="black"/>
<path d="M170.552 140.465H164.068V147.352H170.552V140.465Z" fill="black"/>
<path d="M69.8334 147.151H63.3496V154.038H69.8334V147.151Z" fill="black"/>
<path d="M76.1283 147.151H69.6445V154.038H76.1283V147.151Z" fill="black"/>
<path d="M82.4213 147.151H75.9375V154.038H82.4213V147.151Z" fill="black"/>
<path d="M85.4763 154.038H82.2344V147.151H88.7182V150.595C88.7182 152.546 87.3134 154.038 85.4763 154.038Z" fill="black"/>
<path d="M101.308 147.151H94.8242V154.038H101.308V147.151Z" fill="black"/>
<path d="M113.898 154.038H107.414V150.595C107.414 148.643 108.819 147.151 110.656 147.151H113.898V154.038Z" fill="black"/>
<path d="M120.193 147.151H113.709V154.038H120.193V147.151Z" fill="black"/>
<path d="M126.488 147.151H120.004V154.038H126.488V147.151Z" fill="black"/>
<path d="M132.783 147.151H126.299V154.038H132.783V147.151Z" fill="black"/>
<path d="M139.078 147.151H132.594V154.038H139.078V147.151Z" fill="black"/>
<path d="M145.371 147.151H138.887V154.038H145.371V147.151Z" fill="black"/>
<path d="M157.96 154.038H151.477V150.595C151.477 148.643 152.881 147.151 154.718 147.151H157.96V154.038Z" fill="black"/>
<path d="M164.255 147.151H157.771V154.038H164.255V147.151Z" fill="black"/>
<path d="M170.552 147.151H164.068V154.038H170.552V147.151Z" fill="black"/>
<path d="M69.8334 153.838H63.3496V160.725H69.8334V153.838Z" fill="black"/>
<path d="M101.308 153.838H94.8242V160.725H101.308V153.838Z" fill="black"/>
<path d="M107.603 153.838H101.119V160.725H107.603V153.838Z" fill="black"/>
<path d="M110.656 160.725H107.414V153.838H113.898V157.281C113.898 159.232 112.493 160.725 110.656 160.725Z" fill="black"/>
<path d="M126.488 160.725H123.246C121.409 160.725 120.004 159.232 120.004 157.281V153.838H126.488V160.725Z" fill="black"/>
<path d="M129.541 160.725H126.299V153.838H132.783V157.281C132.783 159.232 131.378 160.725 129.541 160.725Z" fill="black"/>
<path d="M145.371 160.725H142.129C140.292 160.725 138.887 159.232 138.887 157.281V153.838H145.371V160.725Z" fill="black"/>
<path d="M151.665 153.838H145.182V160.725H151.665V153.838Z" fill="black"/>
<path d="M157.96 153.838H151.477V160.725H157.96V153.838Z" fill="black"/>
<path d="M164.255 153.838H157.771V160.725H164.255V153.838Z" fill="black"/>
<path d="M170.552 153.838H164.068V160.725H170.552V153.838Z" fill="black"/>
<path d="M69.8334 160.524H63.3496V167.411H69.8334V160.524Z" fill="black"/>
<path d="M82.4213 167.411H79.1794C77.3423 167.411 75.9375 165.919 75.9375 163.967C75.9375 162.016 77.3423 160.524 79.1794 160.524H82.4213V167.411Z" fill="black"/>
<path d="M85.4763 167.411H82.2344V160.524H85.4763C87.3134 160.524 88.7182 162.016 88.7182 163.967C88.7182 165.919 87.3134 167.411 85.4763 167.411Z" fill="black"/>
<path d="M101.308 167.411H98.0661C96.229 167.411 94.8242 165.919 94.8242 163.967V160.524H101.308V167.411Z" fill="black"/>
<path d="M107.603 160.524H101.119V167.411H107.603V160.524Z" fill="black"/>
<path d="M151.665 160.524H145.182V167.411H151.665V160.524Z" fill="black"/>
<path d="M154.718 167.411H151.477V160.524H157.96V163.967C157.96 165.919 156.556 167.411 154.718 167.411Z" fill="black"/>
<path d="M170.552 160.524H164.068V167.411H170.552V160.524Z" fill="black"/>
<path d="M66.5915 174.097C64.7544 174.097 63.3496 172.605 63.3496 170.654V167.21H69.8334V170.654C69.8334 172.605 68.4286 174.097 66.5915 174.097Z" fill="black"/>
<path d="M95.0111 174.097H88.5273V170.654C88.5273 168.702 89.9322 167.21 91.7692 167.21C93.6063 167.21 95.0111 168.702 95.0111 170.654V174.097Z" fill="black"/>
<path d="M104.361 174.097C102.524 174.097 101.119 172.605 101.119 170.654V167.21H107.603V170.654C107.603 172.605 106.198 174.097 104.361 174.097Z" fill="black"/>
<path d="M120.193 174.097H116.951C115.114 174.097 113.709 172.605 113.709 170.654C113.709 168.702 115.114 167.21 116.951 167.21H120.193V174.097Z" fill="black"/>
<path d="M123.246 174.097H120.004V167.21H123.246C125.083 167.21 126.488 168.702 126.488 170.654C126.488 172.605 125.083 174.097 123.246 174.097Z" fill="black"/>
<path d="M139.078 174.097H132.594V170.654C132.594 168.702 133.999 167.21 135.836 167.21H139.078V174.097Z" fill="black"/>
<path d="M145.371 167.21H138.887V174.097H145.371V167.21Z" fill="black"/>
<path d="M151.665 167.21H145.182V174.097H151.665V167.21Z" fill="black"/>
<path d="M170.552 167.21H164.068V174.097H170.552V167.21Z" fill="black"/>
<path d="M76.1283 180.783H72.8864C71.0494 180.783 69.6445 179.291 69.6445 177.34C69.6445 175.389 71.0494 173.897 72.8864 173.897H76.1283V180.783Z" fill="black"/>
<path d="M79.1794 180.783H75.9375V173.897H79.1794C81.0165 173.897 82.4213 175.389 82.4213 177.34C82.4213 179.291 81.0165 180.783 79.1794 180.783Z" fill="black"/>
<path d="M91.7692 180.783C89.9322 180.783 88.5273 179.291 88.5273 177.34V173.897H95.0111V177.34C95.0111 179.291 93.6063 180.783 91.7692 180.783Z" fill="black"/>
<path d="M139.078 180.783H135.836C133.999 180.783 132.594 179.291 132.594 177.34V173.897H139.078V180.783Z" fill="black"/>
<path d="M145.371 173.897H138.887V180.783H145.371V173.897Z" fill="black"/>
<path d="M151.665 173.897H145.182V180.783H151.665V173.897Z" fill="black"/>
<path d="M157.96 173.897H151.477V180.784H157.96V173.897Z" fill="black"/>
<path d="M164.255 173.897H157.771V180.783H164.255V173.897Z" fill="black"/>
<path d="M167.31 180.783H164.068V173.897H170.552V177.34C170.552 179.291 169.147 180.783 167.31 180.783Z" fill="black"/>
<path d="M27.1519 60.2285H43.2041C50.758 60.2285 57.0529 53.5422 57.0529 45.5186V28.4684C57.0529 20.1105 50.758 13.4241 42.8893 13.4241H26.8372C19.2832 13.4241 12.9883 20.1105 12.9883 28.1341V45.1843C12.9883 53.5422 19.2832 60.2285 27.1519 60.2285ZM50.758 29.4713V44.1813C50.758 49.1961 46.6663 53.5422 41.9451 53.5422H28.0962C23.0602 53.5422 19.2832 49.5304 19.2832 44.1813V29.4713C19.2832 24.4566 23.375 20.1105 28.0962 20.1105H41.9451C46.981 20.1105 50.758 24.1223 50.758 29.4713Z" fill="black"/>
<path d="M140.462 60.2287H156.515C164.069 60.2287 170.363 53.5423 170.363 45.5187V28.4685C170.363 20.1106 164.069 13.4242 156.2 13.4242H140.148C132.594 13.4242 126.299 20.1106 126.299 28.1342V45.1844C126.299 53.5423 132.594 60.2287 140.462 60.2287ZM164.069 29.4715V44.1814C164.069 49.1962 159.977 53.5423 155.256 53.5423H141.407C136.371 53.5423 132.594 49.5305 132.594 44.1814V29.4715C132.594 24.4567 136.686 20.1106 141.407 20.1106H155.256C160.292 20.1106 164.069 24.1224 164.069 29.4715Z" fill="black"/>
<path d="M27.1519 180.583H43.2041C50.758 180.583 57.0529 173.897 57.0529 165.873V148.823C57.0529 140.465 50.758 133.779 42.8893 133.779H26.8372C19.2832 133.779 12.9883 140.465 12.9883 148.489V165.539C12.9883 173.897 19.2832 180.583 27.1519 180.583ZM50.758 149.826V164.536C50.758 169.551 46.6663 173.897 41.9451 173.897H28.0962C23.0602 173.897 19.2832 169.885 19.2832 164.536V149.826C19.2832 144.811 23.375 140.465 28.0962 140.465H41.9451C46.981 140.465 50.758 144.477 50.758 149.826Z" fill="black"/>
<path d="M44.463 26.797H25.5781V46.856H44.463V26.797Z" fill="black"/>
<path d="M157.772 26.797H138.887V46.856H157.772V26.797Z" fill="black"/>
<path d="M44.463 147.151H25.5781V167.21H44.463V147.151Z" fill="black"/>
</g>
<defs>
<clipPath id="clip0_438_1425">
<rect width="182.554" height="193.904" fill="white" transform="translate(0.398438 0.0514832)"/>
</clipPath>
</defs>
</svg>
