<svg width="348" height="87" viewBox="0 0 348 87" fill="none" xmlns="http://www.w3.org/2000/svg">
<path d="M348 78.1384C348 82.9734 344.08 86.8931 339.245 86.8931L8.75473 86.8931C3.91964 86.8931 -3.62688e-06 82.9734 -3.41554e-06 78.1383L-1.46321e-06 33.4742C14.3924 30.2083 25.1945 17.488 25.5275 2.18724C26.0188 2.45143 26.5806 2.60189 27.1775 2.60189C28.798 2.60182 30.1605 1.49729 30.5532 -1.3876e-05L31.6539 -1.38279e-05C32.0466 1.49718 33.4085 2.60179 35.0288 2.60189C36.6493 2.60189 38.0118 1.49729 38.4045 -1.35328e-05L39.506 -1.34847e-05C39.8987 1.49721 41.2604 2.60189 42.8809 2.60189C44.5014 2.60184 45.8639 1.4973 46.2565 -1.31896e-05L47.358 -1.31415e-05C47.7507 1.49709 49.1119 2.60177 50.7322 2.60189C52.3527 2.60189 53.7151 1.49728 54.1078 -1.28464e-05L55.2093 -1.27983e-05C55.6021 1.49722 56.9638 2.60189 58.5842 2.60189C60.2047 2.60186 61.5672 1.49731 61.9599 -1.25032e-05L63.0613 -1.24551e-05C63.4541 1.49708 64.8153 2.60175 66.4355 2.60189C68.056 2.60189 69.4185 1.49728 69.8112 -1.216e-05L70.9126 -1.21119e-05C71.3054 1.49722 72.6671 2.60189 74.2876 2.60189C75.9081 2.60188 77.2705 1.49731 77.6632 -1.18168e-05L78.7647 -1.17686e-05C79.1574 1.49707 80.5186 2.60173 82.1389 2.60189C83.7594 2.60189 85.1218 1.49727 85.5145 -1.14736e-05L86.616 -1.14255e-05C87.0088 1.49722 88.3705 2.60188 89.9909 2.60189C91.6114 2.60189 92.9739 1.49732 93.3665 -1.11304e-05L94.468 -1.10822e-05C94.8608 1.49719 96.2225 2.6019 97.8429 2.6019C99.4633 2.60175 100.825 1.49717 101.218 -1.07872e-05L102.319 -1.0739e-05C102.712 1.49721 104.074 2.60187 105.694 2.6019C107.315 2.6019 108.677 1.49731 109.07 -1.0444e-05L110.171 -1.03958e-05C110.564 1.49719 111.926 2.6019 113.546 2.6019C115.167 2.60177 116.529 1.49718 116.921 -1.01008e-05L118.023 -1.00526e-05C118.415 1.49721 119.777 2.60185 121.398 2.6019C123.018 2.6019 124.381 1.4973 124.773 -9.75755e-06L125.875 -9.7094e-06C126.267 1.4972 127.629 2.6019 129.25 2.6019C130.87 2.6018 132.232 1.49719 132.625 -9.41436e-06L133.726 -9.36621e-06C134.119 1.4972 135.481 2.60183 137.101 2.6019C138.721 2.6019 140.084 1.4973 140.477 -9.07114e-06L141.578 -9.02299e-06C141.971 1.49721 143.333 2.6019 144.953 2.6019C146.573 2.60182 147.936 1.49729 148.329 -8.72791e-06L149.429 -8.6798e-06C149.822 1.49719 151.184 2.60181 152.804 2.6019C154.425 2.6019 155.787 1.49729 156.18 -8.38472e-06L157.281 -8.33657e-06C157.674 1.49721 159.036 2.6019 160.656 2.6019C162.277 2.60184 163.639 1.49729 164.032 -8.0415e-06L165.133 -7.99335e-06C165.526 1.4971 166.887 2.60179 168.508 2.6019C170.128 2.6019 171.491 1.49729 171.883 -7.69831e-06L172.985 -7.65016e-06C173.378 1.49722 174.739 2.6019 176.36 2.6019C177.98 2.60186 179.343 1.4973 179.735 -7.35508e-06L180.837 -7.30694e-06C181.23 1.49709 182.591 2.60177 184.211 2.6019C185.831 2.6019 187.194 1.49728 187.587 -7.01189e-06L188.688 -6.96374e-06C189.081 1.49722 190.443 2.6019 192.063 2.6019C193.684 2.60188 195.046 1.49731 195.439 -6.66867e-06L196.54 -6.62052e-06C196.933 1.49708 198.294 2.60175 199.914 2.6019C201.535 2.6019 202.897 1.49728 203.29 -6.32548e-06L204.391 -6.27733e-06C204.784 1.49723 206.146 2.6019 207.766 2.6019C209.387 2.6019 210.749 1.49732 211.142 -5.98225e-06L212.243 -5.93411e-06C212.636 1.49719 213.998 2.6019 215.618 2.6019C217.239 2.60175 218.601 1.49717 218.993 -5.63906e-06L220.095 -5.59091e-06C220.488 1.49722 221.849 2.60188 223.47 2.6019C225.09 2.6019 226.453 1.49731 226.845 -5.29584e-06L227.947 -5.24769e-06C228.34 1.4972 229.701 2.6019 231.322 2.6019C232.942 2.60177 234.304 1.49718 234.697 -4.95265e-06L235.798 -4.9045e-06C236.191 1.49721 237.553 2.60186 239.173 2.6019C240.794 2.6019 242.156 1.49731 242.549 -4.60942e-06L243.65 -4.56128e-06C244.043 1.4972 245.405 2.6019 247.025 2.6019C248.645 2.6018 250.007 1.49719 250.4 -4.26623e-06L251.501 -4.21808e-06C251.894 1.49721 253.256 2.60184 254.876 2.6019C256.497 2.6019 257.859 1.4973 258.252 -3.92301e-06L259.353 -3.87486e-06C259.746 1.49721 261.108 2.6019 262.728 2.6019C264.349 2.60182 265.711 1.49729 266.104 -3.57978e-06L267.205 -3.53167e-06C267.598 1.4972 268.959 2.60182 270.58 2.6019C272.2 2.6019 273.563 1.4973 273.955 -3.23659e-06L275.057 -3.18845e-06C275.45 1.49721 276.811 2.6019 278.432 2.6019C280.052 2.60184 281.415 1.49729 281.807 -2.89337e-06L282.909 -2.84522e-06C283.302 1.4971 284.663 2.6018 286.283 2.6019C287.904 2.6019 289.266 1.49729 289.659 -2.55018e-06L290.76 -2.50203e-06C291.153 1.49722 292.515 2.6019 294.135 2.6019C295.756 2.60186 297.118 1.4973 297.511 -2.20695e-06L298.612 -2.15881e-06C299.005 1.49709 300.366 2.60178 301.986 2.6019C303.607 2.6019 304.969 1.49729 305.362 -1.86376e-06L306.464 -1.81562e-06C306.856 1.49723 308.218 2.6019 309.838 2.6019C311.459 2.60188 312.821 1.49731 313.214 -1.52054e-06L314.316 -1.47239e-06C314.708 1.49708 316.069 2.60176 317.69 2.6019C319.31 2.6019 320.673 1.49728 321.065 -1.17735e-06L322.167 -1.1292e-06C322.56 1.49723 323.921 2.60191 325.542 2.60191C326.309 2.6019 327.019 2.35368 327.595 1.93362C328.072 15.1567 336.369 26.3843 348 31.1338L348 78.1384Z" fill="#E9E6E6"/>
</svg>
