<svg width="22" height="23" viewBox="0 0 22 23" fill="none" xmlns="http://www.w3.org/2000/svg">
<path d="M15.0604 0.437396C15.5353 0.43628 15.9108 0.805211 15.9119 1.29712L15.913 2.1356C18.9941 2.37708 21.0295 4.47663 21.0328 7.69638L21.0449 17.1209C21.0493 20.6313 18.8439 22.7912 15.3089 22.7968L6.67393 22.808C3.16097 22.8125 0.927957 20.6011 0.92354 17.0806L0.911384 7.76682C0.906974 4.52582 2.87052 2.43186 5.95168 2.14901L5.95057 1.31053C5.94947 0.818626 6.31391 0.448578 6.79982 0.448578C7.28574 0.44746 7.65018 0.81639 7.65128 1.3083L7.65239 2.09088L14.2123 2.08193L14.2112 1.29935C14.2101 0.807447 14.5745 0.438516 15.0604 0.437396ZM15.511 16.3115H15.4999C14.9919 16.3238 14.5844 16.7497 14.5955 17.264C14.5966 17.7782 15.0063 18.202 15.5143 18.2131C16.0322 18.212 16.4519 17.7861 16.4508 17.2606C16.4508 16.7352 16.03 16.3115 15.511 16.3115ZM6.41109 16.3126C5.90308 16.3349 5.50552 16.7609 5.50662 17.2752C5.52981 17.7894 5.94947 18.1919 6.45747 18.1684C6.95554 18.1461 7.352 17.7201 7.32881 17.2058C7.31777 16.7028 6.90805 16.3115 6.41109 16.3126ZM10.961 16.307C10.453 16.3305 10.0566 16.7553 10.0566 17.2696C10.0798 17.7838 10.4994 18.1852 11.0074 18.1628C11.5044 18.1394 11.9019 17.7145 11.8788 17.1991C11.8677 16.6972 11.458 16.3059 10.961 16.307ZM6.40557 12.2879C5.89756 12.3102 5.5011 12.7362 5.5022 13.2505C5.52429 13.7647 5.94505 14.1672 6.45305 14.1437C6.95001 14.1214 7.34648 13.6954 7.32329 13.1811C7.31224 12.6781 6.90363 12.2868 6.40557 12.2879ZM10.9566 12.2488C10.4486 12.2711 10.051 12.6971 10.0521 13.2113C10.0742 13.7256 10.495 14.127 11.003 14.1046C11.5 14.0811 11.8964 13.6563 11.8743 13.142C11.8622 12.6389 11.4536 12.2476 10.9566 12.2488ZM15.5066 12.2543C14.9986 12.2655 14.601 12.6792 14.6021 13.1934V13.2057C14.6131 13.72 15.0328 14.1102 15.5419 14.099C16.0389 14.0867 16.4353 13.6608 16.4243 13.1465C16.4011 12.6546 16.0024 12.2532 15.5066 12.2543ZM14.2145 3.80361L7.65459 3.81255L7.6557 4.71699C7.6557 5.19884 7.29237 5.57895 6.80645 5.57895C6.32053 5.58006 5.95499 5.20107 5.95499 4.71923L5.95388 3.85839C3.80039 4.07416 2.60879 5.3397 2.61209 7.76458L2.61321 8.11227L19.3332 8.08991V7.69862C19.2857 5.29498 18.0797 4.03391 15.9152 3.84609L15.9163 4.70693C15.9163 5.18766 15.5419 5.56889 15.067 5.56889C14.5811 5.57 14.2156 5.18989 14.2156 4.70917L14.2145 3.80361Z" fill="white"/>
</svg>
