<svg width="27" height="27" viewBox="0 0 27 27" fill="none" xmlns="http://www.w3.org/2000/svg">
<g clip-path="url(#clip0_258_11855)">
<path d="M26.1818 13.1901C26.1818 6.03318 20.38 0.231384 13.2231 0.231384C6.06626 0.231384 0.264465 6.03318 0.264465 13.1901C0.264465 19.658 5.00324 25.0192 11.1983 25.9913V16.9359H7.90806V13.1901H11.1983V10.3351C11.1983 7.08733 13.133 5.29337 16.093 5.29337C17.5104 5.29337 18.9938 5.54647 18.9938 5.54647V8.73551H17.3598C15.7501 8.73551 15.2479 9.7345 15.2479 10.7603V13.1901H18.8419L18.2674 16.9359H15.2479V25.9913C21.443 25.0192 26.1818 19.658 26.1818 13.1901Z" fill="#1877F2"/>
<path d="M18.2674 16.936L18.8419 13.1901H15.2479V10.7603C15.2479 9.73554 15.75 8.73554 17.3598 8.73554H18.9938V5.5465C18.9938 5.5465 17.5109 5.2934 16.093 5.2934C13.133 5.2934 11.1983 7.08736 11.1983 10.3351V13.1901H7.90802V16.936H11.1983V25.9913C12.54 26.2012 13.9062 26.2012 15.2479 25.9913V16.936H18.2674Z" fill="white"/>
</g>
<defs>
<clipPath id="clip0_258_11855">
<rect width="25.9174" height="25.9174" fill="white" transform="translate(0.264465 0.231384)"/>
</clipPath>
</defs>
</svg>
