<svg width="46" height="48" viewBox="0 0 46 48" fill="none" xmlns="http://www.w3.org/2000/svg">
<path d="M43.7342 27.6624C41.4736 25.4524 38.3443 25.4767 32.1108 25.5255C30.5408 25.5394 26.5038 25.5533 24.4603 25.5359L24.4069 31.8423C26.5038 31.8597 30.5693 31.8423 32.1642 31.8318C33.0755 31.8249 33.994 31.8179 34.8591 31.8214C31.5056 35.3748 26.8064 39.76 22.6554 40.9537L22.602 40.9677C18.3264 42.2763 13.7946 41.4445 10.765 38.7959L10.7116 38.7507C6.15835 34.9328 5.17579 28.5951 8.27655 22.964C9.16299 21.3212 10.2452 19.769 11.4806 18.3316C12.1961 17.4998 12.9686 16.7029 13.7839 15.9546C17.1944 17.6217 21.1353 18.631 25.2257 18.8398V18.805C26.3115 18.8607 27.3902 18.8572 28.4582 18.7945C32.0431 18.5787 35.4821 17.6947 38.3657 16.0834L38.4832 16.0138C41.1283 14.3884 42.5665 11.813 42.3351 9.12271C42.1073 6.46026 40.2525 4.17717 37.3725 3.01126L37.2835 2.97298C32.9545 1.36855 28.3265 2.15858 23.9762 3.25141L23.9014 3.27229C21.235 4.00664 18.6646 5.07162 16.251 6.41154C18.7145 8.07513 22.0965 9.17144 25.5176 9.38025C25.5497 9.36981 25.5817 9.36285 25.6138 9.35241C28.686 8.58326 32.1784 7.85587 34.941 8.85473C35.5782 9.12271 35.8879 9.45334 35.9022 9.6552C35.92 9.83966 35.7135 10.2503 35.0941 10.6471C33.2607 11.6599 31.0855 12.2654 28.7857 12.4882C27.7284 12.5926 26.6426 12.617 25.5532 12.5648V12.5439C23.6415 12.4464 21.7547 12.1228 19.9854 11.5937C17.4471 10.8385 15.1402 9.68304 13.3282 8.21783C13.1075 8.03685 12.8939 7.85587 12.6874 7.66446L12.6589 7.63661C10.3556 5.5867 8.61831 2.96602 6.74575 0.00426483L1.25979 3.31405C3.31035 6.56119 5.39295 9.69 8.30503 12.2828C8.31927 12.2968 8.34063 12.3142 8.35487 12.3316C7.59659 13.0833 6.87747 13.8629 6.20107 14.6773C4.81267 16.3409 3.59871 18.1193 2.58055 19.9987C-1.97269 28.2714 -0.402733 37.717 6.48231 43.5187C9.75395 46.3691 14.0865 47.8831 18.5756 47.8831C20.5443 47.8831 22.545 47.5942 24.4995 46.9956C30.0922 45.3738 35.5675 40.3586 39.4515 36.2553C39.4515 37.014 39.4444 37.811 39.4373 38.6045C39.423 40.2542 39.4052 44.3366 39.4301 46.5431L45.8809 46.4735C45.8559 44.3297 45.8737 40.282 45.888 38.6602C45.9378 32.9803 45.9663 29.8515 43.7271 27.6589" fill="white"/>
</svg>
