<svg width="31" height="33" viewBox="0 0 31 33" fill="none" xmlns="http://www.w3.org/2000/svg">
<path d="M29.0133 18.6793C27.5136 17.2132 25.4377 17.2293 21.3023 17.2616C20.2608 17.2709 17.5826 17.2801 16.227 17.2686L16.1916 21.4522C17.5826 21.4637 20.2797 21.4522 21.3377 21.4453C21.9423 21.4406 22.5517 21.436 23.1256 21.4383C20.9008 23.7957 17.7834 26.7048 15.0296 27.4967L14.9942 27.506C12.1578 28.3741 9.15137 27.8223 7.14156 26.0653L7.10613 26.0352C4.08552 23.5024 3.43369 19.298 5.49073 15.5623C6.07879 14.4726 6.79675 13.4428 7.61626 12.4893C8.09096 11.9374 8.60345 11.4087 9.14428 10.9123C11.4068 12.0183 14.0212 12.6878 16.7348 12.8264V12.8033C17.4551 12.8402 18.1707 12.8379 18.8792 12.7963C21.2574 12.6532 23.5388 12.0667 25.4518 10.9978L25.5298 10.9516C27.2845 9.87335 28.2386 8.1648 28.0851 6.38007C27.934 4.6138 26.7035 3.0992 24.7929 2.32574L24.7339 2.30034C21.862 1.23597 18.7918 1.76008 15.9058 2.48505L15.8562 2.4989C14.0873 2.98607 12.3822 3.69258 10.7809 4.58148C12.4152 5.68511 14.6589 6.41239 16.9284 6.55092C16.9497 6.544 16.971 6.53938 16.9922 6.53245C19.0304 6.0222 21.3472 5.53965 23.1799 6.20229C23.6026 6.38007 23.8081 6.59941 23.8175 6.73332C23.8293 6.85569 23.6924 7.12813 23.2814 7.39134C22.0651 8.06321 20.6221 8.46495 19.0965 8.61272C18.3951 8.68198 17.6747 8.69814 16.9521 8.66351V8.64966C15.6838 8.58501 14.4321 8.37029 13.2584 8.01935C11.5745 7.51833 10.0441 6.75179 8.84198 5.77977C8.69556 5.65971 8.55386 5.53965 8.41688 5.41266L8.39798 5.39419C6.86996 4.03428 5.71745 2.29573 4.4752 0.330902L0.835817 2.52661C2.19616 4.68076 3.57775 6.75641 5.50962 8.4765C5.51907 8.48573 5.53324 8.49728 5.54269 8.50882C5.03964 9.00753 4.56258 9.52471 4.11386 10.065C3.19279 11.1686 2.38745 12.3484 1.71201 13.5952C-1.30861 19.0833 -0.267098 25.3495 4.30043 29.1984C6.47084 31.0893 9.34503 32.0936 12.3231 32.0936C13.6292 32.0936 14.9564 31.902 16.253 31.5049C19.9632 30.429 23.5955 27.1019 26.1721 24.3798C26.1721 24.8831 26.1674 25.4118 26.1627 25.9383C26.1533 27.0327 26.1414 29.7409 26.158 31.2047L30.4374 31.1586C30.4208 29.7363 30.4327 27.0511 30.4421 25.9752C30.4752 22.2072 30.4941 20.1315 29.0085 18.677" fill="#FF5F4A"/>
</svg>
