<svg width="27" height="27" viewBox="0 0 27 27" fill="none" xmlns="http://www.w3.org/2000/svg">
<g clip-path="url(#clip0_2001_174)">
<path d="M25.9291 13.4886C25.9291 12.6077 25.8577 11.722 25.7053 10.8554H13.4823V15.8456H20.4819C20.1914 17.455 19.2581 18.8787 17.8915 19.7834V23.0213H22.0675C24.5197 20.7643 25.9291 17.4312 25.9291 13.4886Z" fill="#4285F4"/>
<path d="M13.4823 26.1496C16.9773 26.1496 19.9247 25.0021 22.0722 23.0213L17.8963 19.7834C16.7345 20.5738 15.2346 21.0214 13.4871 21.0214C10.1063 21.0214 7.23985 18.7406 6.21134 15.6741H1.9021V19.012C4.10196 23.3879 8.58262 26.1496 13.4823 26.1496V26.1496Z" fill="#34A853"/>
<path d="M6.20658 15.6742C5.66376 14.0647 5.66376 12.322 6.20658 10.7126V7.37469H1.9021C0.0641269 11.0364 0.0641269 15.3504 1.9021 19.012L6.20658 15.6742V15.6742Z" fill="#FBBC04"/>
<path d="M13.4823 5.3605C15.3298 5.33193 17.1154 6.02712 18.4534 7.30323L22.1532 3.60347C19.8104 1.40361 16.7011 0.194165 13.4823 0.232258C8.58261 0.232258 4.10196 2.99398 1.9021 7.37465L6.20658 10.7125C7.23032 7.6413 10.1016 5.3605 13.4823 5.3605V5.3605Z" fill="#EA4335"/>
</g>
<defs>
<clipPath id="clip0_2001_174">
<rect width="25.9174" height="25.9174" fill="white" transform="translate(0.264465 0.231384)"/>
</clipPath>
</defs>
</svg>
