<svg width="14" height="16" viewBox="0 0 14 16" fill="none" xmlns="http://www.w3.org/2000/svg">
<path d="M6.25 0.5C9.301 0.5 11.8195 2.777 12.2005 5.72375L13.888 8.378C13.999 8.55275 13.9765 8.813 13.7192 8.924L12.25 9.5525V11.75C12.25 12.5787 11.5787 13.25 10.75 13.25H9.25075L9.25 15.5H2.5V12.7295C2.5 11.8445 2.173 11.0068 1.567 10.2508C0.74275 9.22325 0.25 7.919 0.25 6.5C0.25 3.1865 2.9365 0.5 6.25 0.5ZM6.25 2C3.7645 2 1.75 4.0145 1.75 6.5C1.75 7.53875 2.101 8.51975 2.737 9.3125C3.5575 10.3355 4 11.5002 4 12.7295V14H7.75L7.7515 11.75H10.75V8.564L11.9125 8.066L10.7552 6.24725L10.7125 5.91575C10.4245 3.68825 8.518 2 6.25 2ZM5.8525 4.82225L6.25 5.21975L6.6475 4.82225C7.1605 4.30925 7.9915 4.30925 8.50375 4.82225C9.01675 5.3345 9.01675 6.1655 8.50375 6.67775L6.25 8.93225L3.99625 6.67775C3.48325 6.1655 3.48325 5.3345 3.99625 4.82225C4.5085 4.30925 5.3395 4.30925 5.8525 4.82225Z" fill="#868C98"/>
</svg>
