<svg width="43" height="45" viewBox="0 0 43 45" fill="none" xmlns="http://www.w3.org/2000/svg">
<rect width="43" height="45" rx="11" fill="#28F59C"/>
<rect width="43" height="45" rx="11" fill="url(#paint0_linear_243_4302)"/>
<rect width="43" height="45" rx="11" fill="url(#paint1_linear_243_4302)"/>
<rect width="43" height="45" rx="11" fill="url(#paint2_linear_243_4302)"/>
<path d="M21.494 12.9166C25.9624 12.9166 29.6462 16.4796 29.6462 20.8878C29.6462 23.1092 28.8383 25.1714 27.5086 26.9194C26.0417 28.8475 24.2336 30.5274 22.1985 31.846C21.7327 32.1508 21.3124 32.1738 20.8012 31.846C18.7544 30.5274 16.9464 28.8475 15.4921 26.9194C14.1614 25.1714 13.3545 23.1092 13.3545 20.8878C13.3545 16.4796 17.0382 12.9166 21.494 12.9166ZM21.494 18.4528C20.0165 18.4528 18.8115 19.6708 18.8115 21.136C18.8115 22.6128 20.0165 23.7742 21.494 23.7742C22.9726 23.7742 24.1892 22.6128 24.1892 21.136C24.1892 19.6708 22.9726 18.4528 21.494 18.4528Z" fill="white"/>
<defs>
<linearGradient id="paint0_linear_243_4302" x1="-4.49144" y1="22.5334" x2="16.5227" y2="32.5916" gradientUnits="userSpaceOnUse">
<stop stop-color="#9DFFC4"/>
<stop offset="1" stop-color="#0BCE79"/>
</linearGradient>
<linearGradient id="paint1_linear_243_4302" x1="-6.50978e-07" y1="7.875" x2="48.0867" y2="30.6349" gradientUnits="userSpaceOnUse">
<stop stop-color="#EFC7FF"/>
<stop offset="1" stop-color="#B368DF"/>
</linearGradient>
<linearGradient id="paint2_linear_243_4302" x1="-6.50978e-07" y1="7.875" x2="48.0867" y2="30.6349" gradientUnits="userSpaceOnUse">
<stop stop-color="#FFC7C7"/>
<stop offset="1" stop-color="#FF5F4A"/>
</linearGradient>
</defs>
</svg>
