<svg width="27" height="26" viewBox="0 0 27 26" fill="none" xmlns="http://www.w3.org/2000/svg">
<path d="M13.4122 2.34412C18.4102 2.34412 22.5306 6.32942 22.5306 11.2601C22.5306 13.7448 21.627 16.0515 20.1397 18.0066C18.4989 20.1633 16.4765 22.0423 14.2002 23.5172C13.6792 23.8581 13.209 23.8838 12.6372 23.5172C10.3479 22.0423 8.32553 20.1633 6.69879 18.0066C5.2104 16.0515 4.30786 13.7448 4.30786 11.2601C4.30786 6.32942 8.42822 2.34412 13.4122 2.34412ZM13.4122 8.53645C11.7595 8.53645 10.4117 9.89883 10.4117 11.5378C10.4117 13.1895 11.7595 14.4887 13.4122 14.4887C15.066 14.4887 16.4268 13.1895 16.4268 11.5378C16.4268 9.89883 15.066 8.53645 13.4122 8.53645Z" fill="white"/>
</svg>
