<svg width="19" height="22" viewBox="0 0 19 22" fill="none" xmlns="http://www.w3.org/2000/svg">
<path d="M9.4122 0.344116C14.4102 0.344116 18.5306 4.32942 18.5306 9.26013C18.5306 11.7448 17.627 14.0515 16.1397 16.0066C14.4989 18.1633 12.4765 20.0423 10.2002 21.5172C9.67918 21.8581 9.20899 21.8838 8.6372 21.5172C6.34788 20.0423 4.32553 18.1633 2.69879 16.0066C1.2104 14.0515 0.307861 11.7448 0.307861 9.26013C0.307861 4.32942 4.42822 0.344116 9.4122 0.344116ZM9.4122 6.53645C7.75952 6.53645 6.41165 7.89883 6.41165 9.53775C6.41165 11.1895 7.75952 12.4887 9.4122 12.4887C11.066 12.4887 12.4268 11.1895 12.4268 9.53775C12.4268 7.89883 11.066 6.53645 9.4122 6.53645Z" fill="white"/>
</svg>
