<svg width="26" height="26" viewBox="0 0 26 26" fill="none" xmlns="http://www.w3.org/2000/svg">
<path fill-rule="evenodd" clip-rule="evenodd" d="M12.4497 12.885H12.4814C15.3763 12.885 17.7315 10.4317 17.7315 7.41613C17.7315 4.40058 15.3763 1.94618 12.4814 1.94618C9.58546 1.94618 7.23026 4.40058 7.23026 7.41294C7.22515 8.87067 7.7659 10.2422 8.75133 11.2761C9.73573 12.3089 11.0492 12.8807 12.4497 12.885ZM8.76359 7.41613C8.76359 5.28118 10.4319 3.5434 12.4814 3.5434C14.5309 3.5434 16.1982 5.28118 16.1982 7.41613C16.1982 9.55109 14.5309 11.2878 12.4814 11.2878H12.4527C11.4632 11.2856 10.5361 10.881 9.83897 10.1495C9.14182 9.41905 8.76053 8.449 8.76359 7.41613Z" fill="white"/>
<path fill-rule="evenodd" clip-rule="evenodd" d="M4.72559 20.1938C4.72559 24.0537 10.5686 24.0537 12.4883 24.0537C14.4081 24.0537 20.2521 24.0537 20.2521 20.1704C20.2521 17.1963 16.6968 14.6834 12.4883 14.6834C8.28088 14.6834 4.72559 17.207 4.72559 20.1938ZM6.25892 20.1938C6.25892 18.3463 8.92283 16.2806 12.4883 16.2806C16.0549 16.2806 18.7188 18.3346 18.7188 20.1704C18.7188 21.6867 16.6222 22.4565 12.4883 22.4565C8.3555 22.4565 6.25892 21.6952 6.25892 20.1938Z" fill="white"/>
</svg>
