<svg width="27" height="31" viewBox="0 0 27 31" fill="none" xmlns="http://www.w3.org/2000/svg">
<path d="M21.8861 28.9864C20.2062 30.5696 18.3719 30.3196 16.6063 29.5697C14.7377 28.8031 13.0235 28.7698 11.0521 29.5697C8.58362 30.6029 7.2808 30.3029 5.80656 28.9864C-2.55893 20.6042 -1.32468 7.8391 8.17221 7.37249C10.4864 7.48914 12.0978 8.60567 13.4521 8.70566C15.4749 8.30571 17.412 7.15585 19.5719 7.30583C22.1604 7.50581 24.1146 8.50568 25.4003 10.3055C20.0519 13.4217 21.3204 20.2709 26.2231 22.1873C25.246 24.687 23.9775 27.17 21.869 29.0031L21.8861 28.9864ZM13.2806 7.2725C13.0235 3.55631 16.1263 0.490026 19.6919 0.190063C20.189 4.48952 15.6806 7.68912 13.2806 7.2725Z" fill="black"/>
</svg>
